<svg xmlns="http://www.w3.org/2000/svg" xmlns:xlink="http://www.w3.org/1999/xlink" width="1920" zoomAndPan="magnify" viewBox="0 0 1440 809.999993" height="1080" preserveAspectRatio="xMidYMid meet" version="1.2"><defs><clipPath id="60218693b3"><path d="M 927.773438 584.382812 L 942 584.382812 L 942 597.589844 L 927.773438 597.589844 Z M 927.773438 584.382812 "/></clipPath><clipPath id="1f12a8061a"><path d="M 934.402344 597.554688 C 929.167969 595.082031 927.714844 592.464844 927.859375 590.71875 C 927.859375 588.828125 929.460938 586.355469 931.058594 585.339844 C 932.511719 584.46875 935.566406 584.320312 937.167969 585.046875 C 938.765625 585.777344 940.65625 588.101562 940.945312 589.992188 C 941.238281 591.738281 940.21875 594.5 938.910156 595.808594 C 937.601562 596.972656 934.695312 597.84375 932.949219 597.40625 C 931.203125 597.117188 929.023438 595.082031 928.296875 593.480469 C 927.570312 591.738281 927.859375 588.828125 929.023438 587.375 C 930.1875 585.628906 933.96875 584.320312 936.003906 584.46875 C 937.601562 584.46875 939.203125 585.484375 940.21875 586.503906 C 941.238281 587.664062 941.964844 589.410156 941.964844 591.011719 C 941.964844 592.464844 941.238281 594.207031 940.363281 595.371094 C 939.347656 596.535156 936.148438 597.554688 936.148438 597.554688 "/></clipPath><clipPath id="6a40b36adb"><path d="M 929.773438 586.605469 L 942.441406 586.605469 L 942.441406 599.648438 L 929.773438 599.648438 Z M 929.773438 586.605469 "/></clipPath><clipPath id="f0b28c5b92"><path d="M 942.402344 591.15625 C 940.65625 597.988281 939.785156 598.570312 938.765625 599.007812 C 937.894531 599.441406 936.875 599.734375 935.710938 599.589844 C 934.257812 599.296875 931.496094 597.988281 930.476562 596.390625 C 929.605469 594.9375 929.75 591.882812 930.1875 590.429688 C 930.476562 589.265625 931.351562 588.539062 932.078125 587.957031 C 932.949219 587.230469 933.820312 586.648438 934.984375 586.648438 C 936.585938 586.503906 940.800781 588.394531 940.800781 588.394531 "/></clipPath><clipPath id="00b0c326db"><path d="M 930.355469 586.023438 L 943 586.023438 L 943 599.066406 L 930.355469 599.066406 Z M 930.355469 586.023438 "/></clipPath><clipPath id="bd851f613b"><path d="M 942.980469 590.574219 C 941.238281 597.40625 940.363281 597.988281 939.347656 598.425781 C 938.476562 598.863281 937.457031 599.152344 936.292969 599.007812 C 934.839844 598.714844 932.078125 597.40625 931.058594 595.808594 C 930.1875 594.355469 930.332031 591.300781 930.769531 589.847656 C 931.058594 588.683594 931.933594 587.957031 932.660156 587.375 C 933.53125 586.648438 934.402344 586.066406 935.566406 586.066406 C 937.167969 585.921875 941.382812 587.8125 941.382812 587.8125 "/></clipPath><clipPath id="60ddd37ae7"><path d="M 931.226562 587.769531 L 943.894531 587.769531 L 943.894531 600.8125 L 931.226562 600.8125 Z M 931.226562 587.769531 "/></clipPath><clipPath id="747ac12a3d"><path d="M 943.855469 592.320312 C 942.109375 599.152344 941.238281 599.734375 940.21875 600.171875 C 939.347656 600.605469 938.328125 600.898438 937.167969 600.75 C 935.710938 600.460938 932.949219 599.152344 931.933594 597.554688 C 931.058594 596.097656 931.203125 593.046875 931.640625 591.589844 C 931.933594 590.429688 932.804688 589.703125 933.53125 589.121094 C 934.402344 588.394531 935.277344 587.8125 936.4375 587.8125 C 938.039062 587.664062 942.253906 589.554688 942.253906 589.554688 "/></clipPath><clipPath id="d5d0d435f6"><path d="M 912 317 L 1169.941406 317 L 1169.941406 638 L 912 638 Z M 912 317 "/></clipPath><clipPath id="6787b216f3"><path d="M 956.222656 388.464844 L 1127.738281 388.464844 L 1127.738281 553 L 956.222656 553 Z M 956.222656 388.464844 "/></clipPath><clipPath id="d59e1f40e2"><path d="M 1048.019531 507.277344 C 1090.730469 506.253906 1083.855469 496.160156 1082.980469 486.363281 C 1081.664062 471.441406 1082.832031 440.726562 1081.664062 429.023438 C 1081.078125 423.90625 1079.761719 420.980469 1079.761719 418.054688 C 1079.761719 416.007812 1080.054688 414.835938 1080.785156 413.082031 C 1081.808594 410.449219 1083.710938 406.792969 1086.195312 404.453125 C 1088.539062 402.113281 1091.753906 400.355469 1094.828125 399.332031 C 1098.042969 398.457031 1101.847656 398.308594 1105.066406 398.894531 C 1108.28125 399.625 1111.648438 401.234375 1114.132812 403.28125 C 1116.765625 405.332031 1118.667969 406.9375 1120.277344 411.328125 C 1124.226562 422.296875 1124.957031 466.910156 1123.640625 476.269531 C 1123.203125 478.902344 1122.910156 479.488281 1121.886719 481.242188 C 1120.570312 483.730469 1118.082031 487.238281 1115.304688 489.285156 C 1112.671875 491.1875 1109.015625 492.796875 1105.796875 493.234375 C 1102.433594 493.820312 1098.628906 493.382812 1095.410156 492.359375 C 1092.195312 491.335938 1088.683594 488.703125 1086.636719 486.800781 C 1085.171875 485.484375 1084.441406 484.023438 1083.5625 482.558594 C 1082.6875 481.097656 1082.246094 480.21875 1081.515625 477.730469 C 1079.761719 471.148438 1082.539062 446.722656 1076.542969 439.847656 C 1072.007812 434.730469 1062.941406 434.730469 1055.628906 434.289062 C 1047.582031 434 1040.5625 437.800781 1030.46875 438.53125 C 1015.402344 439.847656 984.835938 440.871094 974.011719 438.238281 C 969.183594 436.921875 966.550781 434.875 964.210938 432.972656 C 962.457031 431.65625 961.578125 430.339844 960.554688 428.878906 C 959.382812 427.269531 958.507812 425.953125 957.921875 423.90625 C 957.042969 420.980469 956.167969 416.445312 956.605469 412.9375 C 957.042969 409.425781 958.945312 405.183594 960.554688 402.550781 C 961.578125 400.796875 962.457031 399.773438 964.210938 398.457031 C 966.550781 396.554688 971.085938 394.214844 974.011719 393.191406 C 976.058594 392.605469 977.082031 392.167969 979.570312 392.605469 C 985.417969 393.628906 999.316406 401.671875 1007.796875 407.816406 C 1015.84375 413.8125 1019.792969 420.101562 1029.152344 428.441406 C 1045.828125 442.921875 1092.046875 475.246094 1100.238281 485.191406 C 1102.578125 487.96875 1102.871094 489.285156 1103.601562 491.480469 C 1104.332031 493.675781 1104.773438 496.160156 1104.625 498.5 C 1104.625 500.84375 1104.332031 503.183594 1103.457031 505.523438 C 1102.726562 507.714844 1101.554688 509.910156 1100.09375 511.664062 C 1098.777344 513.566406 1096.875 515.324219 1094.972656 516.640625 C 1093.070312 517.808594 1090.730469 518.832031 1088.539062 519.5625 C 1086.34375 520.148438 1083.855469 520.441406 1081.515625 520.296875 C 1079.175781 520.148438 1076.691406 519.5625 1074.496094 518.6875 C 1072.449219 517.808594 1070.253906 516.492188 1068.5 515.03125 C 1066.742188 513.421875 1065.132812 511.519531 1063.964844 509.617188 C 1062.792969 507.570312 1061.769531 505.230469 1061.332031 503.035156 C 1060.894531 500.695312 1060.746094 498.210938 1061.039062 495.867188 C 1061.183594 493.527344 1061.917969 491.1875 1062.941406 489.140625 C 1063.964844 486.945312 1065.28125 484.898438 1066.890625 483.144531 C 1068.5 481.535156 1070.546875 480.074219 1072.59375 478.902344 C 1074.640625 477.878906 1076.980469 477.148438 1079.324219 476.707031 C 1081.664062 476.414062 1084.148438 476.414062 1086.488281 476.707031 C 1088.683594 477.148438 1091.023438 477.878906 1093.070312 479.046875 C 1095.117188 480.21875 1097.167969 481.679688 1098.777344 483.4375 C 1100.382812 485.046875 1101.699219 487.09375 1102.726562 489.285156 C 1103.75 491.335938 1104.332031 493.820312 1104.625 496.160156 C 1104.773438 498.355469 1104.625 500.84375 1104.1875 503.183594 C 1103.601562 505.523438 1102.726562 507.714844 1101.554688 509.765625 C 1100.238281 511.8125 1098.628906 513.714844 1096.875 515.175781 C 1095.117188 516.640625 1092.925781 517.957031 1090.730469 518.832031 C 1088.683594 519.5625 1086.195312 520.148438 1083.855469 520.296875 C 1081.515625 520.441406 1079.46875 520.296875 1076.835938 519.417969 C 1072.742188 518.101562 1068.9375 515.324219 1062.792969 511.082031 C 1048.753906 501.71875 1011.601562 475.390625 997.265625 461.203125 C 988.785156 452.867188 985.417969 442.628906 979.570312 438.824219 C 975.914062 436.484375 971.523438 437.363281 968.746094 436.191406 C 966.84375 435.316406 965.671875 434.582031 964.210938 432.972656 C 962.015625 430.925781 959.089844 426.683594 957.921875 423.90625 C 957.042969 422.003906 956.75 420.394531 956.605469 418.496094 C 956.3125 416.738281 956.167969 414.984375 956.605469 412.9375 C 957.191406 410.011719 958.945312 405.183594 960.554688 402.550781 C 961.578125 400.796875 962.457031 399.773438 964.210938 398.457031 C 966.550781 396.554688 969.621094 394.359375 974.011719 393.191406 C 981.910156 391.289062 998.582031 390.996094 1008.53125 392.75 C 1016.429688 394.066406 1022.425781 400.503906 1029.445312 400.210938 C 1036.90625 399.773438 1044.21875 391.140625 1051.96875 389.535156 C 1059.429688 387.777344 1067.183594 388.800781 1074.933594 389.679688 C 1082.980469 390.558594 1092.339844 390.410156 1098.921875 394.945312 C 1106.234375 399.773438 1112.230469 410.15625 1116.035156 419.078125 C 1119.839844 428 1120.421875 438.679688 1121.59375 448.332031 C 1122.910156 457.695312 1124.8125 469.542969 1123.640625 476.269531 C 1122.761719 480.363281 1120.714844 483.289062 1119.105469 485.628906 C 1117.9375 487.238281 1117.058594 488.117188 1115.304688 489.285156 C 1112.964844 490.75 1109.015625 492.796875 1105.796875 493.234375 C 1102.433594 493.820312 1098.628906 493.382812 1095.410156 492.359375 C 1092.195312 491.335938 1088.976562 489.140625 1086.636719 486.800781 C 1084.296875 484.3125 1082.832031 482.414062 1081.515625 477.730469 C 1078.445312 466.175781 1077.566406 424.34375 1080.785156 413.082031 C 1081.957031 408.546875 1083.710938 406.792969 1086.195312 404.453125 C 1088.539062 402.113281 1092.339844 400.355469 1094.828125 399.332031 C 1096.726562 398.75 1098.191406 398.601562 1099.945312 398.457031 C 1101.554688 398.457031 1103.164062 398.457031 1105.066406 398.894531 C 1107.699219 399.625 1111.648438 401.234375 1114.132812 403.28125 C 1116.765625 405.332031 1120.714844 410.886719 1120.277344 411.328125 C 1119.839844 411.765625 1111.0625 403.28125 1110.183594 404.015625 C 1108.867188 405.183594 1120.570312 417.617188 1123.496094 428.441406 C 1128.320312 446.578125 1127.882812 484.753906 1125.25 505.960938 C 1123.347656 521.171875 1122.472656 536.824219 1114.863281 544.429688 C 1108.136719 551.15625 1095.851562 551.742188 1085.027344 552.621094 C 1072.15625 553.644531 1049.921875 549.839844 1042.753906 548.523438 C 1040.414062 548.085938 1039.683594 548.085938 1037.929688 547.355469 C 1035.441406 546.183594 1031.640625 543.550781 1029.738281 541.652344 C 1028.421875 540.335938 1027.691406 539.308594 1026.960938 537.554688 C 1025.789062 535.070312 1024.472656 530.972656 1024.617188 527.753906 C 1024.617188 524.539062 1025.496094 521.027344 1026.960938 518.101562 C 1028.421875 515.324219 1031.492188 512.398438 1033.542969 510.640625 C 1035.148438 509.472656 1036.171875 508.886719 1038.074219 508.449219 C 1040.707031 507.570312 1048.019531 507.277344 1048.019531 507.277344 "/></clipPath><clipPath id="cb3b246bd4"><path d="M 1030.582031 451.953125 L 1088 451.953125 L 1088 495.464844 L 1030.582031 495.464844 Z M 1030.582031 451.953125 "/></clipPath><clipPath id="df7e04d51d"><path d="M 1048.753906 454.328125 C 1074.058594 452.71875 1075.375 453.160156 1077.566406 454.621094 C 1080.492188 456.667969 1084.734375 460.765625 1086.34375 464.714844 C 1087.953125 468.664062 1088.390625 473.929688 1087.367188 478.023438 C 1086.195312 482.121094 1083.273438 486.652344 1079.90625 489.285156 C 1076.691406 491.917969 1070.984375 493.382812 1067.328125 493.675781 C 1064.84375 493.96875 1062.792969 493.382812 1060.601562 492.796875 C 1058.550781 492.066406 1056.503906 491.335938 1054.601562 489.726562 C 1051.96875 487.238281 1048.167969 482.121094 1046.996094 478.757812 C 1045.972656 476.269531 1045.828125 474.515625 1046.121094 472.027344 C 1046.558594 468.371094 1048.753906 462.375 1050.800781 459.449219 C 1052.261719 457.402344 1053.726562 456.230469 1055.917969 455.0625 C 1059.136719 453.304688 1065.425781 451.84375 1068.9375 451.988281 C 1071.570312 451.988281 1073.324219 452.429688 1075.519531 453.597656 C 1078.738281 455.351562 1083.273438 459.011719 1085.320312 462.667969 C 1087.367188 466.324219 1087.953125 472.320312 1087.804688 475.832031 C 1087.511719 478.464844 1086.636719 480.363281 1085.613281 482.265625 C 1084.734375 484.3125 1083.710938 486.070312 1081.664062 487.824219 C 1078.882812 490.019531 1074.058594 492.359375 1069.667969 493.527344 C 1064.84375 494.992188 1058.550781 495.285156 1053.871094 495.285156 C 1050.214844 495.136719 1046.558594 494.84375 1044.070312 494.113281 C 1042.171875 493.527344 1041.148438 492.945312 1039.683594 491.773438 C 1037.488281 490.164062 1034.566406 487.238281 1033.101562 484.460938 C 1031.492188 481.535156 1030.617188 478.023438 1030.617188 474.808594 C 1030.617188 471.589844 1031.492188 468.078125 1032.957031 465.152344 C 1034.417969 462.375 1036.90625 459.59375 1039.539062 457.839844 C 1042.171875 455.9375 1048.753906 454.328125 1048.753906 454.328125 "/></clipPath><clipPath id="ca80acfc89"><path d="M 970.097656 461.386719 L 1074.421875 461.386719 L 1074.421875 534.445312 L 970.097656 534.445312 Z M 970.097656 461.386719 "/></clipPath><clipPath id="067201154c"><path d="M 1070.691406 494.261719 C 1056.210938 514.882812 1048.460938 527.023438 1039.539062 531.265625 C 1031.054688 535.359375 1018.476562 533.460938 1009.847656 533.898438 C 1003.265625 534.191406 996.828125 534.335938 992.292969 534.042969 C 989.367188 533.898438 987.46875 533.753906 985.273438 533.019531 C 983.078125 532.144531 980.886719 531.121094 978.984375 529.65625 C 977.226562 528.195312 975.472656 526.4375 974.15625 524.539062 C 972.839844 522.636719 971.816406 520.296875 971.085938 518.101562 C 970.5 515.761719 970.207031 513.421875 970.355469 511.082031 C 970.5 508.742188 970.9375 506.253906 971.816406 504.058594 C 972.695312 501.867188 974.011719 499.816406 975.472656 498.0625 C 976.9375 496.160156 978.835938 494.550781 980.886719 493.382812 C 982.933594 492.210938 985.125 491.1875 987.46875 490.75 C 989.808594 490.164062 992.292969 490.019531 994.488281 490.3125 C 996.828125 490.601562 999.316406 491.1875 1001.363281 492.210938 C 1003.554688 493.238281 1005.605469 494.550781 1007.214844 496.160156 C 1008.96875 497.769531 1010.429688 499.816406 1011.601562 501.867188 C 1012.625 503.914062 1013.503906 506.253906 1013.941406 508.59375 C 1014.234375 510.789062 1014.234375 513.273438 1013.941406 515.613281 C 1013.503906 517.957031 1012.769531 520.296875 1011.601562 522.34375 C 1010.578125 524.390625 1009.113281 526.4375 1007.359375 528.046875 C 1005.75 529.65625 1003.554688 530.972656 1001.507812 531.996094 C 999.460938 533.019531 996.972656 533.753906 994.632812 533.898438 C 992.292969 534.191406 989.808594 534.042969 987.613281 533.605469 C 985.273438 533.019531 982.933594 532.144531 981.03125 530.972656 C 978.984375 529.804688 977.082031 528.195312 975.621094 526.4375 C 974.011719 524.683594 972.695312 522.488281 971.964844 520.296875 C 971.085938 518.101562 970.5 515.761719 970.355469 513.421875 C 970.207031 511.082031 970.5 508.59375 971.085938 506.398438 C 971.671875 504.058594 972.695312 501.867188 974.011719 499.816406 C 975.328125 497.917969 977.082031 496.160156 978.984375 494.699219 C 980.738281 493.238281 982.492188 492.210938 985.125 491.335938 C 989.367188 490.164062 995.804688 491.1875 1001.800781 490.3125 C 1009.261719 489.140625 1020.378906 488.703125 1026.667969 484.460938 C 1032.371094 480.65625 1035.734375 470.417969 1039.097656 467.054688 C 1040.5625 465.445312 1041.4375 465.007812 1043.195312 464.128906 C 1045.679688 462.960938 1049.628906 461.644531 1052.847656 461.644531 C 1056.210938 461.496094 1059.867188 462.375 1062.792969 463.835938 C 1065.574219 465.300781 1068.5 467.785156 1070.398438 470.417969 C 1072.300781 473.050781 1073.617188 477 1074.058594 479.78125 C 1074.496094 481.679688 1074.496094 482.851562 1074.203125 484.753906 C 1073.765625 487.53125 1070.691406 494.261719 1070.691406 494.261719 "/></clipPath><clipPath id="3a92f5dc90"><path d="M 954.324219 491.394531 L 1013.832031 491.394531 L 1013.832031 545.539062 L 954.324219 545.539062 Z M 954.324219 491.394531 "/></clipPath><clipPath id="a9badd4996"><path d="M 995.949219 532.582031 C 970.5 537.410156 967.574219 536.238281 964.648438 534.484375 C 961.871094 532.875 959.238281 530.242188 957.628906 527.316406 C 955.875 524.539062 954.851562 521.027344 954.558594 517.808594 C 954.410156 514.445312 955.140625 510.789062 956.457031 507.863281 C 957.773438 504.792969 960.117188 501.867188 962.601562 499.816406 C 965.234375 497.917969 968.160156 495.867188 971.816406 495.722656 C 977.519531 495.578125 989.078125 503.914062 993.609375 504.351562 C 995.511719 504.5 996.390625 503.183594 997.851562 503.328125 C 999.753906 503.621094 1002.238281 504.9375 1004.140625 506.253906 C 1006.042969 507.570312 1007.796875 509.179688 1009.113281 510.933594 C 1010.578125 512.835938 1011.746094 514.882812 1012.480469 517.078125 C 1013.210938 519.273438 1013.503906 521.613281 1013.648438 523.804688 C 1013.648438 526.144531 1013.210938 528.488281 1012.480469 530.679688 C 1011.746094 532.875 1010.578125 534.921875 1009.261719 536.824219 C 1007.945312 538.578125 1006.1875 540.335938 1004.289062 541.503906 C 1002.386719 542.820312 1000.191406 543.84375 998 544.429688 C 995.804688 545.160156 993.464844 545.308594 991.125 545.308594 C 988.929688 545.160156 986.589844 544.574219 984.394531 543.84375 C 982.347656 542.96875 980.300781 541.796875 978.546875 540.335938 C 976.789062 538.871094 975.179688 536.96875 974.011719 535.070312 C 972.839844 533.019531 971.964844 530.828125 971.378906 528.632812 C 970.9375 526.4375 970.792969 523.953125 971.085938 521.757812 C 971.230469 519.417969 971.964844 517.078125 972.839844 515.03125 C 973.863281 512.980469 975.179688 510.933594 976.644531 509.324219 C 978.253906 507.714844 980.152344 506.253906 982.203125 505.082031 C 984.25 504.058594 986.441406 503.328125 988.785156 502.890625 C 990.976562 502.597656 993.316406 502.597656 995.65625 502.890625 C 997.851562 503.183594 1000.191406 504.058594 1002.09375 505.082031 C 1004.140625 506.109375 1006.042969 507.570312 1007.652344 509.179688 C 1009.261719 510.933594 1010.578125 512.835938 1011.601562 514.882812 C 1012.480469 516.929688 1013.210938 519.273438 1013.503906 521.613281 C 1013.648438 523.804688 1013.503906 526.292969 1013.0625 528.488281 C 1012.625 530.679688 1011.746094 532.875 1010.578125 534.921875 C 1009.40625 536.824219 1007.796875 538.726562 1006.042969 540.1875 C 1004.433594 541.652344 1002.386719 542.820312 1000.191406 543.699219 C 998.144531 544.574219 995.804688 545.160156 993.464844 545.308594 C 991.269531 545.308594 988.785156 545.601562 986.589844 544.574219 C 983.957031 543.257812 982.347656 538.578125 979.421875 537.261719 C 976.496094 535.945312 972.402344 537.554688 969.332031 536.675781 C 966.257812 535.652344 962.75 533.167969 960.699219 531.410156 C 959.238281 530.09375 958.507812 529.070312 957.628906 527.316406 C 956.3125 524.976562 954.851562 521.027344 954.558594 517.808594 C 954.410156 514.445312 955.140625 510.789062 956.457031 507.863281 C 957.773438 504.792969 959.824219 502.160156 962.601562 499.964844 C 965.964844 497.183594 971.378906 495.285156 975.765625 493.820312 C 980.007812 492.503906 984.542969 491.917969 988.492188 491.628906 C 992 491.480469 995.367188 491.335938 998.4375 492.210938 C 1001.507812 493.234375 1005.019531 495.578125 1007.066406 497.476562 C 1008.382812 498.648438 1009.261719 499.671875 1010.136719 501.425781 C 1011.308594 503.765625 1012.917969 507.714844 1013.0625 510.933594 C 1013.210938 514.152344 1012.625 517.808594 1011.164062 520.734375 C 1009.847656 523.660156 1007.652344 526.585938 1005.019531 528.488281 C 1002.53125 530.535156 995.949219 532.582031 995.949219 532.582031 "/></clipPath><clipPath id="2a2d37800a"><path d="M 954.433594 454 L 1059.714844 454 L 1059.714844 556.546875 L 954.433594 556.546875 Z M 954.433594 454 "/></clipPath><clipPath id="ec487d4b27"><path d="M 977.8125 528.488281 C 973.132812 504.207031 975.914062 500.402344 974.449219 498.210938 C 972.988281 495.867188 967.136719 496.308594 964.648438 494.992188 C 962.894531 494.113281 961.871094 492.945312 960.699219 491.773438 C 959.53125 490.601562 958.359375 489.433594 957.484375 487.679688 C 956.3125 485.191406 954.703125 481.097656 954.558594 477.878906 C 954.410156 474.515625 955.140625 470.710938 956.457031 467.785156 C 957.921875 464.714844 960.847656 461.644531 962.894531 459.742188 C 964.503906 458.425781 965.527344 457.839844 967.429688 457.109375 C 970.0625 456.230469 972.695312 455.792969 977.519531 455.351562 C 988.636719 454.476562 1020.085938 452.867188 1033.542969 456.378906 C 1041.878906 458.71875 1048.3125 461.496094 1052.554688 467.054688 C 1057.234375 473.050781 1059.429688 483.730469 1059.429688 492.066406 C 1059.285156 500.550781 1055.042969 509.03125 1051.96875 517.664062 C 1048.753906 527.171875 1043.925781 541.066406 1040.414062 546.625 C 1038.660156 549.257812 1037.199219 550.425781 1035.296875 551.890625 C 1033.394531 553.351562 1031.054688 554.523438 1028.859375 555.253906 C 1026.519531 555.984375 1024.035156 556.421875 1021.546875 556.421875 C 1019.207031 556.277344 1016.71875 555.839844 1014.378906 555.105469 C 1012.1875 554.375 1009.847656 553.058594 1007.945312 551.597656 C 1006.042969 550.132812 1004.289062 548.378906 1002.972656 546.332031 C 1001.65625 544.28125 1000.632812 541.941406 1000.046875 539.601562 C 999.316406 537.410156 999.023438 534.777344 999.167969 532.4375 C 999.316406 529.949219 999.898438 527.460938 1000.921875 525.269531 C 1001.800781 523.074219 1003.117188 520.878906 1004.726562 519.125 C 1006.1875 517.222656 1008.238281 515.613281 1010.285156 514.296875 C 1012.332031 513.128906 1014.671875 512.25 1017.011719 511.664062 C 1019.351562 511.226562 1021.984375 511.082031 1024.328125 511.375 C 1026.8125 511.664062 1029.152344 512.398438 1031.347656 513.421875 C 1033.542969 514.445312 1035.734375 515.90625 1037.34375 517.515625 C 1039.097656 519.125 1040.707031 521.171875 1041.730469 523.367188 C 1042.902344 525.5625 1043.632812 527.902344 1044.074219 530.242188 C 1044.363281 532.726562 1044.363281 535.214844 1044.074219 537.554688 C 1043.632812 540.042969 1042.757812 542.382812 1041.585938 544.574219 C 1040.414062 546.625 1038.953125 548.671875 1037.199219 550.28125 C 1035.441406 551.890625 1033.25 553.351562 1031.054688 554.375 C 1028.859375 555.398438 1026.375 555.984375 1024.035156 556.277344 C 1021.695312 556.421875 1019.0625 556.277344 1016.71875 555.839844 C 1014.378906 555.253906 1012.039062 554.230469 1009.992188 553.058594 C 1007.945312 551.742188 1006.042969 550.132812 1004.433594 548.234375 C 1002.972656 546.476562 1001.65625 544.28125 1000.777344 541.941406 C 999.898438 539.75 999.167969 538.140625 999.167969 534.777344 C 999.316406 527.316406 1012.332031 504.058594 1007.652344 498.210938 C 1003.117188 492.652344 982.203125 499.378906 974.449219 498.210938 C 970.207031 497.476562 967.136719 496.308594 964.648438 494.992188 C 962.894531 494.113281 962.015625 493.238281 960.699219 491.773438 C 958.800781 489.726562 956.457031 486.070312 955.433594 482.996094 C 954.558594 479.78125 954.265625 475.976562 954.996094 472.613281 C 955.582031 469.394531 957.191406 466.03125 959.238281 463.398438 C 961.285156 460.765625 964.355469 458.425781 967.429688 457.109375 C 970.5 455.792969 974.011719 455.351562 977.519531 455.351562 C 981.324219 455.351562 985.566406 455.207031 989.660156 457.402344 C 995.804688 460.910156 1003.410156 470.125 1008.089844 479.195312 C 1013.796875 490.019531 1017.304688 512.398438 1018.476562 519.417969 C 1018.914062 521.90625 1019.207031 522.488281 1019.0625 524.390625 C 1018.769531 527.171875 1017.890625 531.265625 1016.429688 534.042969 C 1014.820312 536.824219 1011.746094 539.75 1009.554688 541.359375 C 1008.089844 542.527344 1006.921875 543.113281 1005.019531 543.550781 C 1002.53125 544.28125 997.851562 544.867188 995.21875 544.574219 C 993.171875 544.429688 992 544.136719 990.246094 543.257812 C 987.90625 542.089844 984.25 539.894531 982.203125 537.410156 C 980.152344 534.921875 977.8125 528.488281 977.8125 528.488281 "/></clipPath><clipPath id="12c165a5f1"><path d="M 877.300781 305 L 1181.726562 305 L 1181.726562 555 L 877.300781 555 Z M 877.300781 305 "/></clipPath><clipPath id="9f55b8f77c"><path d="M 1001.800781 540.042969 C 991.269531 517.371094 978.691406 519.710938 971.816406 515.324219 C 964.941406 510.933594 959.089844 506.253906 955.289062 495.578125 C 946.367188 471.003906 968.746094 367.15625 955.726562 356.332031 C 950.316406 351.796875 938.320312 360.28125 933.347656 360.425781 C 930.863281 360.425781 929.839844 360.425781 927.789062 359.695312 C 924.867188 358.816406 920.183594 356.332031 917.84375 354.574219 C 916.089844 353.113281 915.210938 352.089844 914.042969 350.335938 C 912.433594 347.703125 910.53125 343.460938 910.09375 339.804688 C 909.652344 336.144531 910.53125 331.613281 911.410156 328.6875 C 912.140625 326.640625 912.726562 325.46875 914.042969 323.714844 C 915.941406 321.226562 919.308594 318.007812 922.523438 316.253906 C 925.742188 314.644531 929.105469 314.058594 933.347656 313.621094 C 939.34375 312.890625 946.21875 313.183594 954.851562 313.765625 C 968.453125 314.792969 989.222656 319.472656 1006.921875 320.933594 C 1025.203125 322.398438 1045.679688 322.25 1063.085938 322.398438 C 1078.445312 322.542969 1093.511719 323.566406 1106.089844 321.957031 C 1116.328125 320.640625 1124.664062 316.253906 1133.441406 315.230469 C 1141.339844 314.207031 1149.089844 313.035156 1156.40625 315.082031 C 1164.15625 317.425781 1174.6875 322.980469 1178.199219 329.417969 C 1181.5625 335.5625 1181.707031 345.800781 1178.34375 352.234375 C 1174.542969 359.550781 1162.988281 367.738281 1153.480469 369.640625 C 1143.535156 371.6875 1129.785156 365.253906 1119.839844 362.621094 C 1111.5 360.425781 1104.773438 356.917969 1097.3125 355.160156 C 1090.144531 353.550781 1085.90625 352.820312 1076.105469 352.234375 C 1054.3125 351.066406 992.148438 352.96875 969.621094 355.453125 C 959.089844 356.476562 953.386719 356.183594 946.660156 359.695312 C 939.636719 363.5 931.886719 370.957031 928.375 377.976562 C 925.15625 384.558594 929.984375 394.507812 925.597656 400.210938 C 920.183594 407.378906 897.953125 416.738281 892.832031 413.519531 C 888.738281 411.035156 890.347656 399.480469 891.371094 391.726562 C 892.539062 381.925781 894.734375 365.691406 901.171875 359.988281 C 906.4375 355.308594 915.941406 354.429688 923.695312 355.746094 C 933.203125 357.355469 942.417969 368.179688 953.242188 372.859375 C 965.234375 377.832031 978.253906 381.78125 993.171875 384.269531 C 1011.015625 387.339844 1037.34375 388.070312 1053.433594 388.070312 C 1064.109375 387.925781 1071.277344 387.484375 1080.199219 386.167969 C 1089.121094 384.851562 1098.335938 382.367188 1106.675781 380.027344 C 1114.28125 377.976562 1121.59375 376.953125 1128.175781 373.152344 C 1135.195312 368.910156 1141.925781 357.941406 1147.042969 355.308594 C 1149.96875 353.992188 1151.871094 353.992188 1154.503906 353.992188 C 1157.867188 353.992188 1161.964844 354.574219 1165.179688 356.039062 C 1168.398438 357.355469 1171.617188 359.839844 1173.664062 362.621094 C 1175.859375 365.398438 1177.46875 369.640625 1178.199219 372.421875 C 1178.636719 374.46875 1178.785156 375.785156 1178.492188 377.976562 C 1178.199219 380.902344 1176.734375 385.585938 1175.273438 388.21875 C 1174.394531 390.117188 1173.519531 391.140625 1171.910156 392.605469 C 1169.714844 394.507812 1162.988281 398.601562 1162.695312 398.164062 C 1162.253906 397.578125 1176.296875 380.609375 1179.367188 381.78125 C 1182.441406 382.953125 1180.539062 398.164062 1180.246094 407.085938 C 1179.953125 416.59375 1180.976562 429.023438 1177.320312 437.214844 C 1174.101562 444.382812 1164.742188 447.164062 1161.523438 454.476562 C 1157.574219 463.542969 1164.449219 482.414062 1158.304688 489.140625 C 1152.601562 495.429688 1139.144531 494.992188 1127.445312 494.84375 C 1111.792969 494.550781 1092.046875 486.363281 1072.59375 482.851562 C 1050.800781 478.902344 1027.984375 474.660156 1003.265625 472.464844 C 975.035156 469.980469 924.867188 473.34375 912.433594 470.125 C 908.921875 469.25 907.898438 468.226562 905.996094 466.761719 C 904.242188 465.300781 902.488281 463.542969 901.171875 461.644531 C 899.855469 459.59375 898.828125 457.402344 898.097656 455.0625 C 897.511719 452.867188 897.222656 450.378906 897.367188 448.039062 C 897.511719 445.554688 898.097656 443.214844 898.828125 441.019531 C 899.707031 438.824219 901.023438 436.632812 902.632812 434.875 C 904.09375 433.121094 905.996094 431.511719 908.042969 430.195312 C 910.09375 429.023438 912.433594 428.148438 914.625 427.5625 C 916.96875 427.125 919.453125 426.976562 921.792969 427.269531 C 924.132812 427.417969 926.621094 428.148438 928.667969 429.171875 C 930.863281 430.050781 932.910156 431.511719 934.664062 433.121094 C 936.273438 434.730469 937.882812 436.777344 938.90625 438.824219 C 940.078125 440.871094 940.808594 443.214844 941.246094 445.554688 C 941.6875 447.894531 941.6875 450.378906 941.246094 452.71875 C 940.808594 455.0625 940.078125 457.402344 938.90625 459.59375 C 937.882812 461.644531 936.273438 463.542969 934.664062 465.152344 C 932.910156 466.761719 930.863281 468.226562 928.667969 469.25 C 926.621094 470.273438 924.132812 470.859375 921.792969 471.148438 C 919.453125 471.441406 916.96875 471.296875 914.625 470.710938 C 912.433594 470.273438 910.09375 469.25 908.042969 468.078125 C 905.996094 466.910156 904.09375 465.300781 902.632812 463.542969 C 901.023438 461.644531 899.707031 459.59375 898.828125 457.402344 C 898.097656 455.207031 897.511719 452.71875 897.367188 450.378906 C 897.222656 448.039062 897.511719 445.554688 898.097656 443.214844 C 898.828125 441.019531 899.855469 438.679688 901.171875 436.777344 C 902.488281 434.875 904.242188 432.972656 905.996094 431.511719 C 907.898438 430.195312 910.09375 429.023438 912.433594 428.292969 C 914.625 427.417969 915.941406 427.269531 919.453125 427.125 C 928.816406 426.394531 956.457031 427.5625 972.402344 428.148438 C 985.417969 428.585938 993.464844 428.585938 1008.089844 429.757812 C 1031.054688 431.65625 1076.691406 434.144531 1097.019531 440.140625 C 1108.429688 443.652344 1117.789062 455.351562 1122.472656 453.011719 C 1126.566406 450.964844 1123.933594 438.972656 1125.835938 431.65625 C 1127.882812 423.761719 1133.441406 415.421875 1134.757812 407.523438 C 1135.925781 400.503906 1132.855469 394.359375 1134.464844 387.046875 C 1136.511719 377.246094 1143.242188 359.109375 1149.238281 355.015625 C 1152.457031 352.820312 1156.550781 353.699219 1160.0625 354.429688 C 1163.425781 355.015625 1167.082031 356.625 1169.859375 358.816406 C 1172.640625 361.011719 1175.125 364.667969 1176.589844 367.300781 C 1177.46875 369.203125 1177.90625 370.371094 1178.199219 372.421875 C 1178.492188 375.34375 1178.199219 380.464844 1177.613281 383.242188 C 1177.027344 385.292969 1176.296875 386.753906 1175.273438 388.21875 C 1174.394531 389.824219 1173.519531 391.140625 1171.910156 392.605469 C 1169.714844 394.507812 1164.449219 395.96875 1162.695312 398.164062 C 1161.523438 399.773438 1162.695312 401.671875 1161.085938 403.429688 C 1157.136719 408.109375 1142.363281 414.105469 1129.929688 418.347656 C 1112.964844 424.050781 1090 429.464844 1067.621094 431.21875 C 1042.171875 433.414062 1005.457031 430.339844 984.835938 428.148438 C 972.402344 426.683594 965.382812 426.683594 955.140625 422.734375 C 942.269531 417.910156 914.625 404.160156 915.066406 397.722656 C 915.359375 392.898438 935.835938 384.269531 939.492188 386.753906 C 942.855469 388.949219 940.371094 400.648438 938.90625 408.253906 C 937.003906 417.179688 935.394531 432.535156 927.9375 436.921875 C 919.308594 442.1875 894.734375 437.949219 886.980469 431.804688 C 881.277344 427.125 881.132812 418.054688 879.667969 410.742188 C 878.058594 402.84375 877.476562 394.066406 878.058594 385.730469 C 878.5 377.539062 879.667969 368.910156 882.886719 361.304688 C 885.957031 353.84375 891.957031 346.96875 896.929688 340.828125 C 901.460938 335.269531 905.851562 330.296875 911.261719 326.054688 C 916.675781 321.8125 922.964844 318.007812 929.398438 315.230469 C 935.980469 312.453125 940.660156 310.84375 950.167969 309.378906 C 969.039062 306.453125 1012.625 306.015625 1037.199219 305.722656 C 1055.042969 305.578125 1070.253906 305.136719 1083.710938 306.453125 C 1093.804688 307.476562 1101.992188 309.234375 1110.476562 311.425781 C 1118.375 313.328125 1127.152344 313.035156 1133.003906 318.742188 C 1141.046875 326.492188 1152.457031 354.136719 1148.359375 360.28125 C 1145.289062 364.816406 1133.003906 360.71875 1124.519531 361.742188 C 1114.71875 362.914062 1105.941406 366.570312 1093.070312 367.59375 C 1073.324219 369.347656 1041.292969 368.179688 1017.304688 366.863281 C 995.367188 365.546875 971.378906 361.304688 954.851562 360.28125 C 944.027344 359.550781 934.371094 361.449219 927.789062 359.695312 C 923.402344 358.671875 920.476562 356.917969 917.84375 354.574219 C 915.066406 352.089844 912.726562 348.726562 911.410156 345.359375 C 910.238281 341.851562 909.652344 337.753906 910.09375 334.246094 C 910.53125 330.589844 911.992188 326.640625 914.042969 323.714844 C 916.089844 320.789062 919.890625 317.863281 922.523438 316.253906 C 924.28125 315.082031 925.15625 314.792969 927.789062 314.207031 C 933.347656 313.183594 947.390625 313.183594 956.3125 314.058594 C 964.210938 314.9375 971.964844 315.523438 978.546875 319.03125 C 985.417969 322.691406 992.441406 329.5625 996.242188 336 C 999.605469 341.996094 1000.191406 346.824219 1001.214844 356.039062 C 1003.703125 375.929688 1006.480469 430.050781 1000.484375 450.964844 C 997.414062 462.375 983.8125 470.273438 985.859375 475.390625 C 987.613281 480.074219 1001.214844 477.730469 1008.53125 482.121094 C 1018.035156 487.679688 1030.324219 499.816406 1036.027344 509.179688 C 1040.414062 516.785156 1042.316406 526.292969 1042.609375 532.4375 C 1042.902344 536.53125 1041.878906 539.75 1040.855469 542.382812 C 1040.125 544.136719 1039.246094 545.308594 1038.222656 546.625 C 1037.199219 547.941406 1036.320312 549.109375 1034.710938 550.28125 C 1032.515625 551.742188 1028.128906 553.789062 1025.496094 554.375 C 1023.742188 554.8125 1022.425781 554.960938 1020.523438 554.667969 C 1017.746094 554.375 1013.648438 553.351562 1011.015625 551.742188 C 1008.238281 549.988281 1005.457031 546.917969 1003.847656 544.574219 C 1002.679688 543.113281 1001.800781 540.042969 1001.800781 540.042969 "/></clipPath><clipPath id="202d544a8b"><path d="M 910.542969 170.710938 L 1267.226562 170.710938 L 1267.226562 592.210938 L 910.542969 592.210938 Z M 910.542969 170.710938 "/></clipPath><clipPath id="74d357a05f"><path d="M 943.421875 542.078125 L 1137.804688 542.078125 L 1137.804688 595.398438 L 943.421875 595.398438 Z M 943.421875 542.078125 "/></clipPath><clipPath id="2983c5b26e"><path d="M 932.355469 591 L 958.992188 591 L 958.992188 618.96875 L 932.355469 618.96875 Z M 932.355469 591 "/></clipPath><clipPath id="e852148a9d"><path d="M 945.164062 594.9375 C 948.652344 600.898438 955.921875 605.257812 957.667969 608.167969 C 958.6875 609.765625 958.976562 611.074219 958.832031 612.53125 C 958.6875 613.839844 957.957031 615.582031 957.085938 616.601562 C 956.070312 617.617188 954.613281 618.492188 953.160156 618.78125 C 951.851562 619.074219 950.105469 618.78125 948.796875 618.199219 C 947.488281 617.617188 946.179688 616.457031 945.597656 615.148438 C 944.871094 613.402344 945.019531 610.203125 945.746094 608.605469 C 946.328125 607.148438 947.78125 606.132812 949.089844 605.550781 C 950.398438 604.96875 952.144531 604.824219 953.453125 605.113281 C 954.90625 605.550781 956.359375 606.421875 957.230469 607.585938 C 958.105469 608.605469 958.832031 610.203125 958.832031 611.65625 C 958.6875 613.546875 957.378906 616.457031 955.921875 617.617188 C 954.761719 618.636719 953.160156 618.925781 951.707031 618.925781 C 950.253906 618.925781 949.089844 618.34375 947.488281 617.472656 C 944.871094 615.875 940.511719 612.09375 938.328125 609.476562 C 936.585938 607.585938 935.421875 605.839844 934.402344 603.804688 C 933.53125 601.769531 932.222656 599.152344 932.367188 597.261719 C 932.511719 595.664062 933.242188 594.0625 934.402344 593.046875 C 935.710938 591.882812 938.476562 590.863281 940.21875 591.15625 C 942.109375 591.445312 945.164062 594.9375 945.164062 594.9375 "/></clipPath><clipPath id="ca3d5bc272"><path d="M 945.847656 605.5625 L 958.703125 605.5625 L 958.703125 618.324219 L 945.847656 618.324219 Z M 945.847656 605.5625 "/></clipPath><clipPath id="cfdecc2e95"><path d="M 958.6875 610.058594 C 958.394531 614.710938 956.796875 617.183594 955.050781 617.910156 C 953.453125 618.636719 950.542969 618.199219 949.089844 617.617188 C 948.070312 617.035156 947.34375 616.164062 946.761719 615.292969 C 946.328125 614.417969 945.890625 613.546875 945.890625 612.382812 C 946.035156 610.785156 947.054688 607.875 948.363281 606.859375 C 949.816406 605.695312 952.871094 605.40625 954.324219 605.695312 C 955.488281 605.839844 957.085938 607.292969 957.085938 607.292969 "/></clipPath><clipPath id="98fb5051cc"><path d="M 1128.335938 579 L 1153.128906 579 L 1153.128906 619.617188 L 1128.335938 619.617188 Z M 1128.335938 579 "/></clipPath><clipPath id="6c6b290a69"><path d="M 1131.570312 607.148438 C 1136.367188 602.351562 1137.09375 587.8125 1139.128906 583.59375 C 1140 581.847656 1140.582031 580.832031 1141.890625 580.105469 C 1143.492188 579.230469 1146.835938 578.941406 1148.582031 579.523438 C 1150.035156 579.960938 1151.34375 581.269531 1152.070312 582.429688 C 1152.796875 583.738281 1153.234375 585.484375 1152.941406 586.9375 C 1152.507812 588.828125 1150.761719 591.589844 1149.015625 592.464844 C 1147.273438 593.335938 1144.074219 593.335938 1142.328125 592.320312 C 1140.582031 591.445312 1138.839844 588.683594 1138.691406 586.792969 C 1138.546875 584.757812 1139.710938 581.847656 1141.308594 580.539062 C 1142.765625 579.230469 1145.964844 578.652344 1147.851562 579.230469 C 1149.742188 579.8125 1151.777344 581.414062 1152.652344 583.886719 C 1154.105469 588.246094 1150.90625 600.460938 1149.308594 605.40625 C 1148.433594 608.167969 1147.5625 609.765625 1146.253906 611.65625 C 1144.945312 613.546875 1143.199219 615.582031 1141.308594 616.890625 C 1139.566406 618.054688 1137.238281 619.21875 1135.496094 619.507812 C 1134.332031 619.652344 1133.457031 619.507812 1132.441406 618.925781 C 1131.132812 618.34375 1129.679688 617.035156 1128.949219 615.726562 C 1128.371094 614.273438 1128.222656 612.382812 1128.660156 610.929688 C 1129.097656 609.476562 1131.570312 607.148438 1131.570312 607.148438 "/></clipPath><clipPath id="45612834d1"><path d="M 1110.484375 606.671875 L 1143.496094 606.671875 L 1143.496094 627.382812 L 1110.484375 627.382812 Z M 1110.484375 606.671875 "/></clipPath><clipPath id="fc24931c01"><path d="M 1140.875 618.78125 C 1127.0625 626.34375 1119.9375 627.941406 1116.445312 627.070312 C 1114.121094 626.34375 1112.085938 624.597656 1111.210938 623 C 1110.484375 621.691406 1110.484375 619.945312 1110.777344 618.492188 C 1111.066406 617.183594 1111.9375 615.582031 1113.101562 614.710938 C 1114.554688 613.691406 1117.609375 612.820312 1119.5 613.402344 C 1121.390625 613.839844 1123.714844 616.019531 1124.296875 617.910156 C 1124.878906 619.652344 1124.296875 622.851562 1123.136719 624.308594 C 1121.972656 625.90625 1119.0625 627.070312 1117.171875 627.070312 C 1115.71875 627.070312 1114.121094 626.34375 1113.101562 625.46875 C 1111.9375 624.453125 1111.066406 623 1110.777344 621.542969 C 1110.484375 620.234375 1110.628906 618.34375 1111.210938 617.183594 C 1111.792969 615.875 1112.957031 614.566406 1114.410156 613.839844 C 1116.300781 612.820312 1119.644531 613.546875 1122.699219 612.675781 C 1127.0625 611.65625 1134.332031 606.859375 1137.382812 606.714844 C 1138.691406 606.714844 1139.421875 607.148438 1140.4375 607.730469 C 1141.457031 608.605469 1142.765625 610.058594 1143.199219 611.511719 C 1143.636719 612.964844 1143.347656 615 1142.910156 616.308594 C 1142.472656 617.328125 1140.875 618.78125 1140.875 618.78125 "/></clipPath><clipPath id="5f9edd01c1"><path d="M 962.96875 296.125 L 1118.257812 296.125 L 1118.257812 334.246094 L 962.96875 334.246094 Z M 962.96875 296.125 "/></clipPath><clipPath id="8f5cde2c79"><path d="M 967.554688 374.574219 L 1122.84375 374.574219 L 1122.84375 412.695312 L 967.554688 412.695312 Z M 967.554688 374.574219 "/></clipPath><clipPath id="5cac09a4aa"><path d="M 971.773438 380.039062 L 1127.0625 380.039062 L 1127.0625 501.28125 L 971.773438 501.28125 Z M 971.773438 380.039062 "/></clipPath><clipPath id="6f1bf25cbe"><path d="M 872.210938 278.304688 L 985.457031 278.304688 L 985.457031 528.042969 L 872.210938 528.042969 Z M 872.210938 278.304688 "/></clipPath><clipPath id="ae2de14a51"><path d="M 998.78125 287.265625 L 1081.785156 287.265625 L 1081.785156 547.269531 L 998.78125 547.269531 Z M 998.78125 287.265625 "/></clipPath><clipPath id="9402f16cc5"><path d="M 1000.074219 496.953125 L 1090.074219 496.953125 L 1090.074219 586.953125 L 1000.074219 586.953125 Z M 1000.074219 496.953125 "/></clipPath><clipPath id="034a3d384a"><path d="M 1040.277344 382.265625 L 1117.839844 382.265625 L 1117.839844 398.113281 L 1040.277344 398.113281 Z M 1040.277344 382.265625 "/></clipPath><clipPath id="adc568da1d"><path d="M 1040.277344 326.320312 L 1117.839844 326.320312 L 1117.839844 342.167969 L 1040.277344 342.167969 Z M 1040.277344 326.320312 "/></clipPath><clipPath id="3cb4f00369"><path d="M 1040.277344 450.679688 L 1117.839844 450.679688 L 1117.839844 466.527344 L 1040.277344 466.527344 Z M 1040.277344 450.679688 "/></clipPath></defs><g id="1e04d8f686"><rect x="0" width="1440" y="0" height="809.999993" style="fill:#ffffff;fill-opacity:1;stroke:none;"/><rect x="0" width="1440" y="0" height="809.999993" style="fill:#e4e2dd;fill-opacity:1;stroke:none;"/><g clip-rule="nonzero" clip-path="url(#60218693b3)"><g clip-rule="nonzero" clip-path="url(#1f12a8061a)"><path style=" stroke:none;fill-rule:nonzero;fill:#010101;fill-opacity:1;" d="M 922.042969 578.652344 L 947.78125 578.652344 L 947.78125 603.515625 L 922.042969 603.515625 Z M 922.042969 578.652344 "/></g></g><g clip-rule="nonzero" clip-path="url(#6a40b36adb)"><g clip-rule="nonzero" clip-path="url(#f0b28c5b92)"><path style=" stroke:none;fill-rule:nonzero;fill:#010101;fill-opacity:1;" d="M 924.371094 580.832031 L 948.214844 580.832031 L 948.214844 605.515625 L 924.371094 605.515625 Z M 924.371094 580.832031 "/></g></g><g clip-rule="nonzero" clip-path="url(#00b0c326db)"><g clip-rule="nonzero" clip-path="url(#bd851f613b)"><path style=" stroke:none;fill-rule:nonzero;fill:#010101;fill-opacity:1;" d="M 924.953125 580.25 L 948.796875 580.25 L 948.796875 604.933594 L 924.953125 604.933594 Z M 924.953125 580.25 "/></g></g><g clip-rule="nonzero" clip-path="url(#60ddd37ae7)"><g clip-rule="nonzero" clip-path="url(#747ac12a3d)"><path style=" stroke:none;fill-rule:nonzero;fill:#010101;fill-opacity:1;" d="M 925.824219 581.996094 L 949.671875 581.996094 L 949.671875 606.679688 L 925.824219 606.679688 Z M 925.824219 581.996094 "/></g></g><g clip-rule="nonzero" clip-path="url(#d5d0d435f6)"><path style=" stroke:none;fill-rule:nonzero;fill:#030303;fill-opacity:1;" d="M 952.433594 637.859375 C 950.238281 637.859375 948.042969 637.1875 946.179688 635.835938 L 927.035156 622.007812 C 917.734375 615.285156 912.179688 604.421875 912.179688 592.941406 L 912.179688 360.109375 C 912.179688 336.546875 931.351562 317.375 954.914062 317.375 L 1127.511719 317.375 C 1151.074219 317.375 1170.246094 336.546875 1170.246094 360.109375 L 1170.246094 592.933594 C 1170.246094 604.421875 1164.683594 615.292969 1155.367188 622.007812 L 1136.203125 635.835938 C 1132.46875 638.535156 1127.421875 638.527344 1123.699219 635.835938 L 1100.332031 618.976562 L 1076.996094 635.832031 C 1073.25 638.527344 1068.214844 638.519531 1064.484375 635.832031 L 1041.171875 618.984375 L 1017.84375 635.832031 C 1014.109375 638.527344 1009.066406 638.527344 1005.332031 635.832031 L 982.011719 618.984375 L 958.695312 635.832031 C 956.824219 637.175781 954.628906 637.855469 952.441406 637.855469 Z M 1100.328125 595.128906 C 1102.519531 595.128906 1104.714844 595.800781 1106.578125 597.148438 L 1129.941406 614.003906 L 1142.851562 604.683594 C 1146.617188 601.96875 1148.867188 597.578125 1148.867188 592.9375 L 1148.867188 360.109375 C 1148.867188 348.324219 1139.285156 338.742188 1127.5 338.742188 L 954.910156 338.742188 C 943.125 338.742188 933.542969 348.324219 933.542969 360.109375 L 933.542969 592.941406 C 933.542969 597.578125 935.785156 601.96875 939.546875 604.6875 L 952.433594 614 L 975.75 597.152344 C 979.484375 594.453125 984.53125 594.453125 988.265625 597.152344 L 1011.589844 614 L 1034.914062 597.152344 C 1038.648438 594.453125 1043.695312 594.460938 1047.425781 597.152344 L 1070.734375 614 L 1094.074219 597.152344 C 1095.941406 595.804688 1098.136719 595.132812 1100.328125 595.132812 Z M 1100.328125 595.128906 "/></g><path style=" stroke:none;fill-rule:nonzero;fill:#030303;fill-opacity:1;" d="M 1111.4375 476.078125 L 970.96875 476.078125 C 965.074219 476.078125 960.289062 471.292969 960.289062 465.394531 C 960.289062 459.5 965.074219 454.710938 970.96875 454.710938 L 1111.4375 454.710938 C 1117.335938 454.710938 1122.121094 459.5 1122.121094 465.394531 C 1122.121094 471.292969 1117.335938 476.078125 1111.4375 476.078125 Z M 1111.4375 476.078125 "/><path style=" stroke:none;fill-rule:nonzero;fill:#030303;fill-opacity:1;" d="M 1111.4375 421.667969 L 970.96875 421.667969 C 965.074219 421.667969 960.289062 416.882812 960.289062 410.984375 C 960.289062 405.089844 965.074219 400.304688 970.96875 400.304688 L 1111.4375 400.304688 C 1117.335938 400.304688 1122.121094 405.089844 1122.121094 410.984375 C 1122.121094 416.882812 1117.335938 421.667969 1111.4375 421.667969 Z M 1111.4375 421.667969 "/><path style=" stroke:none;fill-rule:nonzero;fill:#030303;fill-opacity:1;" d="M 1111.4375 530.496094 L 970.96875 530.496094 C 965.074219 530.496094 960.289062 525.707031 960.289062 519.8125 C 960.289062 513.914062 965.074219 509.128906 970.96875 509.128906 L 1111.4375 509.128906 C 1117.335938 509.128906 1122.121094 513.914062 1122.121094 519.8125 C 1122.121094 525.707031 1117.335938 530.496094 1111.4375 530.496094 Z M 1111.4375 530.496094 "/><g clip-rule="nonzero" clip-path="url(#6787b216f3)"><g clip-rule="nonzero" clip-path="url(#d59e1f40e2)"><path style=" stroke:none;fill-rule:nonzero;fill:#e4e2dd;fill-opacity:1;" d="M 950.753906 383.683594 L 1131.15625 383.683594 L 1131.15625 558.617188 L 950.753906 558.617188 Z M 950.753906 383.683594 "/></g></g><g clip-rule="nonzero" clip-path="url(#cb3b246bd4)"><g clip-rule="nonzero" clip-path="url(#df7e04d51d)"><path style=" stroke:none;fill-rule:nonzero;fill:#e4e2dd;fill-opacity:1;" d="M 1024.765625 446.136719 L 1093.691406 446.136719 L 1093.691406 501.28125 L 1024.765625 501.28125 Z M 1024.765625 446.136719 "/></g></g><g clip-rule="nonzero" clip-path="url(#ca80acfc89)"><g clip-rule="nonzero" clip-path="url(#067201154c)"><path style=" stroke:none;fill-rule:nonzero;fill:#e4e2dd;fill-opacity:1;" d="M 964.503906 455.792969 L 1080.015625 455.792969 L 1080.015625 540.042969 L 964.503906 540.042969 Z M 964.503906 455.792969 "/></g></g><g clip-rule="nonzero" clip-path="url(#3a92f5dc90)"><g clip-rule="nonzero" clip-path="url(#a9badd4996)"><path style=" stroke:none;fill-rule:nonzero;fill:#e4e2dd;fill-opacity:1;" d="M 948.707031 485.777344 L 1019.449219 485.777344 L 1019.449219 551.15625 L 948.707031 551.15625 Z M 948.707031 485.777344 "/></g></g><g clip-rule="nonzero" clip-path="url(#2a2d37800a)"><g clip-rule="nonzero" clip-path="url(#ec487d4b27)"><path style=" stroke:none;fill-rule:nonzero;fill:#e4e2dd;fill-opacity:1;" d="M 948.707031 449.503906 L 1065.441406 449.503906 L 1065.441406 562.273438 L 948.707031 562.273438 Z M 948.707031 449.503906 "/></g></g><g clip-rule="nonzero" clip-path="url(#12c165a5f1)"><g clip-rule="nonzero" clip-path="url(#9f55b8f77c)"><path style=" stroke:none;fill-rule:nonzero;fill:#e4e2dd;fill-opacity:1;" d="M 872.210938 299.871094 L 1185.800781 299.871094 L 1185.800781 560.519531 L 872.210938 560.519531 Z M 872.210938 299.871094 "/></g></g><g clip-rule="nonzero" clip-path="url(#202d544a8b)"><path style=" stroke:none;fill-rule:nonzero;fill:#000000;fill-opacity:1;" d="M 960.222656 170.710938 L 1202.304688 170.710938 C 1249.847656 170.710938 1267.207031 209.457031 1267.207031 235.558594 L 1267.207031 316.617188 C 1267.207031 325.53125 1259.90625 332.828125 1250.980469 332.828125 L 1169.855469 332.828125 L 1169.855469 576 C 1169.855469 584.917969 1162.554688 592.210938 1153.628906 592.210938 L 926.472656 592.210938 C 917.550781 592.210938 910.246094 584.917969 910.246094 576 L 910.246094 220.644531 C 910.246094 193.082031 932.636719 170.710938 960.222656 170.710938 Z M 1234.757812 235.558594 C 1234.59375 227.9375 1231.835938 203.136719 1202.304688 203.136719 C 1184.457031 203.136719 1169.855469 217.726562 1169.855469 235.558594 L 1169.855469 300.402344 L 1234.757812 300.402344 Z M 942.699219 559.789062 L 1137.402344 559.789062 L 1137.402344 235.558594 C 1137.402344 223.722656 1140.8125 212.699219 1146.492188 203.136719 L 960.382812 203.136719 C 950.648438 203.136719 942.699219 211.078125 942.699219 220.644531 Z M 942.699219 559.789062 "/></g><path style=" stroke:none;fill-rule:nonzero;fill:#000000;fill-opacity:1;" d="M 991.375 300.402344 L 1088.726562 300.402344 C 1097.652344 300.402344 1104.953125 307.699219 1104.953125 316.617188 C 1104.953125 325.53125 1097.652344 332.828125 1088.726562 332.828125 L 991.375 332.828125 C 982.449219 332.828125 975.148438 325.53125 975.148438 316.617188 C 975.148438 307.699219 982.449219 300.402344 991.375 300.402344 Z M 991.375 300.402344 "/><path style=" stroke:none;fill-rule:nonzero;fill:#000000;fill-opacity:1;" d="M 991.375 381.460938 L 1088.726562 381.460938 C 1097.652344 381.460938 1104.953125 388.757812 1104.953125 397.671875 C 1104.953125 406.589844 1097.652344 413.886719 1088.726562 413.886719 L 991.375 413.886719 C 982.449219 413.886719 975.148438 406.589844 975.148438 397.671875 C 975.148438 388.757812 982.449219 381.460938 991.375 381.460938 Z M 991.375 381.460938 "/><path style=" stroke:none;fill-rule:nonzero;fill:#000000;fill-opacity:1;" d="M 1023.824219 462.519531 L 1088.726562 462.519531 C 1097.652344 462.519531 1104.953125 469.816406 1104.953125 478.730469 C 1104.953125 487.648438 1097.652344 494.941406 1088.726562 494.941406 L 1023.824219 494.941406 C 1014.902344 494.941406 1007.601562 487.648438 1007.601562 478.730469 C 1007.601562 469.816406 1014.902344 462.519531 1023.824219 462.519531 Z M 1023.824219 462.519531 "/><g clip-rule="nonzero" clip-path="url(#74d357a05f)"><path style=" stroke:none;fill-rule:nonzero;fill:#e4e2dd;fill-opacity:1;" d="M 943.421875 542.078125 L 1137.757812 542.078125 L 1137.757812 595.398438 L 943.421875 595.398438 Z M 943.421875 542.078125 "/></g><g clip-rule="nonzero" clip-path="url(#2983c5b26e)"><g clip-rule="nonzero" clip-path="url(#e852148a9d)"><path style=" stroke:none;fill-rule:nonzero;fill:#010101;fill-opacity:1;" d="M 926.550781 585.339844 L 964.648438 585.339844 L 964.648438 624.921875 L 926.550781 624.921875 Z M 926.550781 585.339844 "/></g></g><g clip-rule="nonzero" clip-path="url(#ca3d5bc272)"><g clip-rule="nonzero" clip-path="url(#cfdecc2e95)"><path style=" stroke:none;fill-rule:nonzero;fill:#010101;fill-opacity:1;" d="M 940.074219 599.878906 L 964.757812 599.878906 L 964.757812 623.726562 L 940.074219 623.726562 Z M 940.074219 599.878906 "/></g></g><g clip-rule="nonzero" clip-path="url(#98fb5051cc)"><g clip-rule="nonzero" clip-path="url(#6c6b290a69)"><path style=" stroke:none;fill-rule:nonzero;fill:#010101;fill-opacity:1;" d="M 1122.84375 573.417969 L 1158.902344 573.417969 L 1158.902344 625.535156 L 1122.84375 625.535156 Z M 1122.84375 573.417969 "/></g></g><g clip-rule="nonzero" clip-path="url(#45612834d1)"><g clip-rule="nonzero" clip-path="url(#fc24931c01)"><path style=" stroke:none;fill-rule:nonzero;fill:#010101;fill-opacity:1;" d="M 1104.960938 600.898438 L 1149.144531 600.898438 L 1149.144531 633.03125 L 1104.960938 633.03125 Z M 1104.960938 600.898438 "/></g></g><g clip-rule="nonzero" clip-path="url(#5f9edd01c1)"><path style=" stroke:none;fill-rule:nonzero;fill:#e4e2dd;fill-opacity:1;" d="M 962.96875 296.125 L 1118.285156 296.125 L 1118.285156 334.246094 L 962.96875 334.246094 Z M 962.96875 296.125 "/></g><g clip-rule="nonzero" clip-path="url(#8f5cde2c79)"><path style=" stroke:none;fill-rule:nonzero;fill:#e4e2dd;fill-opacity:1;" d="M 967.554688 374.574219 L 1122.871094 374.574219 L 1122.871094 412.695312 L 967.554688 412.695312 Z M 967.554688 374.574219 "/></g><g clip-rule="nonzero" clip-path="url(#5cac09a4aa)"><path style=" stroke:none;fill-rule:nonzero;fill:#e4e2dd;fill-opacity:1;" d="M 971.773438 380.039062 L 1127.113281 380.039062 L 1127.113281 501.28125 L 971.773438 501.28125 Z M 971.773438 380.039062 "/></g><g clip-rule="nonzero" clip-path="url(#6f1bf25cbe)"><path style=" stroke:none;fill-rule:nonzero;fill:#e4e2dd;fill-opacity:1;" d="M 872.210938 278.304688 L 985.457031 278.304688 L 985.457031 528.242188 L 872.210938 528.242188 Z M 872.210938 278.304688 "/></g><g clip-rule="nonzero" clip-path="url(#ae2de14a51)"><path style=" stroke:none;fill-rule:nonzero;fill:#e4e2dd;fill-opacity:1;" d="M 998.78125 287.265625 L 1081.785156 287.265625 L 1081.785156 547.300781 L 998.78125 547.300781 Z M 998.78125 287.265625 "/></g><g clip-rule="nonzero" clip-path="url(#9402f16cc5)"><path style=" stroke:none;fill-rule:nonzero;fill:#000000;fill-opacity:1;" d="M 1000.074219 514.164062 L 1000.074219 498.402344 C 1000.074219 497.601562 1000.726562 496.953125 1001.527344 496.953125 L 1017.289062 496.953125 C 1018.089844 496.953125 1018.738281 497.601562 1018.738281 498.402344 C 1018.738281 499.203125 1018.089844 499.855469 1017.289062 499.855469 L 1002.976562 499.855469 L 1002.976562 514.164062 C 1002.976562 514.964844 1002.328125 515.617188 1001.527344 515.617188 C 1000.726562 515.617188 1000.074219 514.964844 1000.074219 514.164062 Z M 1072.863281 499.855469 L 1087.171875 499.855469 L 1087.171875 514.164062 C 1087.171875 514.964844 1087.824219 515.617188 1088.625 515.617188 C 1089.425781 515.617188 1090.074219 514.964844 1090.074219 514.164062 L 1090.074219 498.402344 C 1090.074219 497.601562 1089.425781 496.953125 1088.625 496.953125 L 1072.863281 496.953125 C 1072.0625 496.953125 1071.410156 497.601562 1071.410156 498.402344 C 1071.410156 499.203125 1072.0625 499.855469 1072.863281 499.855469 Z M 1017.289062 584.050781 L 1002.976562 584.050781 L 1002.976562 569.738281 C 1002.976562 568.9375 1002.328125 568.289062 1001.527344 568.289062 C 1000.726562 568.289062 1000.074219 568.9375 1000.074219 569.738281 L 1000.074219 585.5 C 1000.074219 586.300781 1000.726562 586.953125 1001.527344 586.953125 L 1017.289062 586.953125 C 1018.089844 586.953125 1018.738281 586.300781 1018.738281 585.5 C 1018.738281 584.699219 1018.089844 584.050781 1017.289062 584.050781 Z M 1088.625 568.289062 C 1087.824219 568.289062 1087.171875 568.9375 1087.171875 569.738281 L 1087.171875 584.050781 L 1072.863281 584.050781 C 1072.0625 584.050781 1071.410156 584.699219 1071.410156 585.5 C 1071.410156 586.300781 1072.0625 586.953125 1072.863281 586.953125 L 1088.625 586.953125 C 1089.425781 586.953125 1090.074219 586.300781 1090.074219 585.5 L 1090.074219 569.738281 C 1090.074219 568.9375 1089.425781 568.289062 1088.625 568.289062 Z M 1012.941406 575.535156 L 1012.941406 508.367188 L 1010.042969 508.367188 L 1010.042969 575.535156 Z M 1080.109375 575.535156 L 1080.109375 508.367188 L 1077.207031 508.367188 L 1077.207031 575.535156 Z M 1016.679688 575.535156 L 1016.679688 508.367188 L 1014.972656 508.367188 L 1014.972656 575.535156 Z M 1073.496094 508.367188 L 1068.375 508.367188 L 1068.375 575.535156 L 1073.496094 575.535156 Z M 1019.675781 568.507812 L 1022.578125 568.507812 L 1022.578125 508.367188 L 1019.675781 508.367188 Z M 1030.136719 568.507812 L 1035.257812 568.507812 L 1035.257812 508.367188 L 1030.136719 508.367188 Z M 1044.265625 568.507812 L 1047.167969 568.507812 L 1047.167969 508.367188 L 1044.265625 508.367188 Z M 1055.835938 568.507812 L 1058.738281 568.507812 L 1058.738281 508.367188 L 1055.835938 508.367188 Z M 1064.617188 568.507812 L 1066.324219 568.507812 L 1066.324219 508.367188 L 1064.617188 508.367188 Z M 1025.460938 568.507812 L 1028.363281 568.507812 L 1028.363281 508.367188 L 1025.460938 508.367188 Z M 1039.5625 568.507812 L 1041.269531 568.507812 L 1041.269531 508.367188 L 1039.5625 508.367188 Z M 1048.941406 568.507812 L 1054.0625 568.507812 L 1054.0625 508.367188 L 1048.941406 508.367188 Z M 1060.167969 568.507812 L 1063.070312 568.507812 L 1063.070312 508.367188 L 1060.167969 508.367188 Z M 1060.167969 568.507812 "/></g><g clip-rule="nonzero" clip-path="url(#034a3d384a)"><path style=" stroke:none;fill-rule:nonzero;fill:#00bf63;fill-opacity:1;" d="M 1117.839844 382.265625 L 1117.839844 398.113281 L 1040.273438 398.113281 L 1040.273438 382.265625 Z M 1117.839844 382.265625 "/></g><g clip-rule="nonzero" clip-path="url(#adc568da1d)"><path style=" stroke:none;fill-rule:nonzero;fill:#00bf63;fill-opacity:1;" d="M 1117.839844 326.320312 L 1117.839844 342.167969 L 1040.273438 342.167969 L 1040.273438 326.320312 Z M 1117.839844 326.320312 "/></g><g clip-rule="nonzero" clip-path="url(#3cb4f00369)"><path style=" stroke:none;fill-rule:nonzero;fill:#00bf63;fill-opacity:1;" d="M 1117.839844 450.679688 L 1117.839844 466.527344 L 1040.273438 466.527344 L 1040.273438 450.679688 Z M 1117.839844 450.679688 "/></g><g style="fill:#00bf63;fill-opacity:1;"><g transform="translate(265.449966, 462.430971)"><path style="stroke:none" d="M 78.3125 -126.046875 C 63.09375 -126.046875 51.082031 -120.976562 42.28125 -110.84375 C 33.476562 -100.707031 29.078125 -86.832031 29.078125 -69.21875 C 29.078125 -51.101562 33.320312 -37.101562 41.8125 -27.21875 C 50.300781 -17.34375 62.40625 -12.40625 78.125 -12.40625 C 87.78125 -12.40625 98.796875 -14.140625 111.171875 -17.609375 L 111.171875 -3.5 C 101.578125 0.09375 89.738281 1.890625 75.65625 1.890625 C 55.269531 1.890625 39.535156 -4.296875 28.453125 -16.671875 C 17.378906 -29.046875 11.84375 -46.625 11.84375 -69.40625 C 11.84375 -83.675781 14.507812 -96.175781 19.84375 -106.90625 C 25.175781 -117.644531 32.875 -125.914062 42.9375 -131.71875 C 53.007812 -137.53125 64.863281 -140.4375 78.5 -140.4375 C 93.019531 -140.4375 105.710938 -137.785156 116.578125 -132.484375 L 109.75 -118.65625 C 99.269531 -123.582031 88.789062 -126.046875 78.3125 -126.046875 Z M 78.3125 -126.046875 "/></g></g><g style="fill:#00bf63;fill-opacity:1;"><g transform="translate(402.536669, 462.430971)"><path style="stroke:none" d="M 97.15625 -36.84375 C 97.15625 -24.65625 92.734375 -15.148438 83.890625 -8.328125 C 75.054688 -1.515625 63.066406 1.890625 47.921875 1.890625 C 31.503906 1.890625 18.875 -0.222656 10.03125 -4.453125 L 10.03125 -19.984375 C 15.71875 -17.578125 21.90625 -15.679688 28.59375 -14.296875 C 35.289062 -12.910156 41.921875 -12.21875 48.484375 -12.21875 C 59.210938 -12.21875 67.289062 -14.253906 72.71875 -18.328125 C 78.15625 -22.398438 80.875 -28.066406 80.875 -35.328125 C 80.875 -40.117188 79.910156 -44.046875 77.984375 -47.109375 C 76.054688 -50.171875 72.832031 -52.992188 68.3125 -55.578125 C 63.800781 -58.171875 56.941406 -61.109375 47.734375 -64.390625 C 34.847656 -69.003906 25.644531 -74.46875 20.125 -80.78125 C 14.601562 -87.09375 11.84375 -95.328125 11.84375 -105.484375 C 11.84375 -116.160156 15.847656 -124.65625 23.859375 -130.96875 C 31.878906 -137.28125 42.488281 -140.4375 55.6875 -140.4375 C 69.445312 -140.4375 82.101562 -137.910156 93.65625 -132.859375 L 88.640625 -118.84375 C 77.210938 -123.644531 66.097656 -126.046875 55.296875 -126.046875 C 46.773438 -126.046875 40.113281 -124.210938 35.3125 -120.546875 C 30.519531 -116.890625 28.125 -111.804688 28.125 -105.296875 C 28.125 -100.503906 29.003906 -96.578125 30.765625 -93.515625 C 32.535156 -90.453125 35.519531 -87.640625 39.71875 -85.078125 C 43.914062 -82.523438 50.34375 -79.703125 59 -76.609375 C 73.519531 -71.429688 83.507812 -65.875 88.96875 -59.9375 C 94.425781 -54.007812 97.15625 -46.3125 97.15625 -36.84375 Z M 97.15625 -36.84375 "/></g></g><g style="fill:#00bf63;fill-opacity:1;"><g transform="translate(523.714527, 462.430971)"><path style="stroke:none" d="M 96.21875 0 L 19.03125 0 L 19.03125 -138.453125 L 96.21875 -138.453125 L 96.21875 -124.140625 L 35.125 -124.140625 L 35.125 -79.546875 L 92.515625 -79.546875 L 92.515625 -65.34375 L 35.125 -65.34375 L 35.125 -14.390625 L 96.21875 -14.390625 Z M 96.21875 0 "/></g></g><g style="fill:#00bf63;fill-opacity:1;"><g transform="translate(646.312825, 462.430971)"><path style="stroke:none" d="M 80.296875 0 L 33.328125 -122.71875 L 32.578125 -122.71875 C 33.460938 -113 33.90625 -101.445312 33.90625 -88.0625 L 33.90625 0 L 19.03125 0 L 19.03125 -138.453125 L 43.28125 -138.453125 L 87.125 -24.25 L 87.875 -24.25 L 132.09375 -138.453125 L 156.15625 -138.453125 L 156.15625 0 L 140.0625 0 L 140.0625 -89.203125 C 140.0625 -99.429688 140.5 -110.539062 141.375 -122.53125 L 140.625 -122.53125 L 93.28125 0 Z M 80.296875 0 "/></g></g><g style="fill:#00bf63;fill-opacity:1;"><g transform="translate(836.144954, 462.430971)"><path style="stroke:none" d="M 19.03125 0 L 19.03125 -138.453125 L 35.125 -138.453125 L 35.125 0 Z M 19.03125 0 "/></g></g><g style="fill:#00bf63;fill-opacity:1;"><g transform="translate(904.956201, 462.430971)"><path style="stroke:none" d="M 61.640625 0 L 45.546875 0 L 45.546875 -124.140625 L 1.703125 -124.140625 L 1.703125 -138.453125 L 105.484375 -138.453125 L 105.484375 -124.140625 L 61.640625 -124.140625 Z M 61.640625 0 "/></g></g></g></svg>