<svg xmlns="http://www.w3.org/2000/svg" xmlns:xlink="http://www.w3.org/1999/xlink" width="1080" zoomAndPan="magnify" viewBox="0 0 810 1439.999935" height="1920" preserveAspectRatio="xMidYMid meet" version="1.2"><defs><clipPath id="df84554584"><path d="M 0 177.601562 L 808.847656 177.601562 L 808.847656 986.449219 L 0 986.449219 Z M 0 177.601562 "/></clipPath><clipPath id="1a35fc681e"><path d="M 383 702 L 424.921875 702 L 424.921875 766 L 383 766 Z M 383 702 "/></clipPath><clipPath id="1e9070b2cb"><path d="M 369 776.644531 L 411 776.644531 L 411 841 L 369 841 Z M 369 776.644531 "/></clipPath><clipPath id="6a089bd3f0"><path d="M 355.101562 851.339844 L 397 851.339844 L 397 916 L 355.101562 916 Z M 355.101562 851.339844 "/></clipPath><clipPath id="2823a6aab1"><path d="M 294 767.019531 L 335.964844 767.019531 L 335.964844 832 L 294 832 Z M 294 767.019531 "/></clipPath><clipPath id="a07a906765"><path d="M 234.492188 310.394531 L 276.605469 310.394531 L 276.605469 375 L 234.492188 375 Z M 234.492188 310.394531 "/></clipPath><clipPath id="777df5f083"><path d="M 129.1875 436.460938 L 171 436.460938 L 171 501 L 129.1875 501 Z M 129.1875 436.460938 "/></clipPath><clipPath id="ca6bcd927b"><path d="M 578.585938 516.6875 L 620.695312 516.6875 L 620.695312 581 L 578.585938 581 Z M 578.585938 516.6875 "/></clipPath><clipPath id="c63e04ad47"><path d="M 578.585938 637 L 620.695312 637 L 620.695312 701 L 578.585938 701 Z M 578.585938 637 "/></clipPath><clipPath id="3dde214d54"><path d="M 696 571.800781 L 737.867188 571.800781 L 737.867188 636 L 696 636 Z M 696 571.800781 "/></clipPath><clipPath id="4264c219cf"><path d="M 536 265 L 577.992188 265 L 577.992188 329 L 536 329 Z M 536 265 "/></clipPath></defs><g id="51ff433df8"><rect x="0" width="810" y="0" height="1439.999935" style="fill:#ffffff;fill-opacity:1;stroke:none;"/><rect x="0" width="810" y="0" height="1439.999935" style="fill:#e4e2dd;fill-opacity:1;stroke:none;"/><g clip-rule="nonzero" clip-path="url(#df84554584)"><path style=" stroke:none;fill-rule:nonzero;fill:#007bff;fill-opacity:1;" d="M 656.339844 872.878906 C 652.660156 838.171875 645.222656 816.539062 597.074219 769.414062 C 587.984375 760.550781 580.023438 753.214844 572.984375 746.753906 C 539.082031 715.605469 533.875 710.824219 548.246094 666.203125 C 552.605469 652.632812 556.359375 643.59375 559.089844 637.007812 C 567.976562 615.601562 566.402344 611.867188 549.949219 592.488281 C 545.441406 587.15625 539.835938 580.546875 532.625 571.355469 C 520.527344 555.957031 516.796875 541.308594 521.480469 527.789062 C 529.144531 505.726562 557.460938 489.828125 582.125 483.84375 C 601.03125 479.285156 611.671875 485.820312 625.144531 494.109375 C 639.464844 502.898438 655.691406 512.890625 681.90625 507.207031 C 689.644531 505.527344 696.703125 503.5 703.515625 501.570312 C 735.492188 492.433594 754.945312 486.972656 786.796875 536.226562 C 788.148438 547.519531 789.023438 558.9375 789.351562 570.429688 C 789.476562 574.308594 789.476562 578.191406 789.476562 582.074219 C 789.476562 698.105469 737.792969 802.242188 656.339844 872.878906 Z M 19.46875 582.074219 C 19.46875 556.90625 21.949219 532.167969 26.605469 508.082031 C 46.789062 523.128906 64.390625 546.417969 72.253906 605.933594 C 79.765625 662.796875 109.511719 673.566406 135.753906 683.054688 C 146.167969 686.835938 156.007812 690.390625 164.421875 696.652344 C 188.859375 714.855469 239.339844 765.734375 239.339844 806.773438 C 239.339844 846.710938 258.019531 862.183594 276.070312 877.160156 C 282.082031 882.140625 288.289062 887.300781 293.949219 893.460938 C 307.347656 908.058594 311.828125 937.304688 312.90625 955.980469 C 144.691406 914.769531 19.46875 762.804688 19.46875 582.074219 Z M 174.914062 272.914062 C 216.203125 288.738281 248.453125 286.785156 274.542969 285.183594 C 289.191406 284.257812 301.863281 283.480469 313.40625 285.933594 C 325 288.363281 330.132812 302.886719 337.21875 326.523438 C 344.277344 350.035156 352.292969 376.675781 374.976562 391.148438 C 381.488281 395.304688 384.339844 401.265625 383.515625 408.902344 C 382.164062 421.246094 371.496094 434.066406 358.699219 438.75 C 350.113281 441.878906 336.890625 442.753906 322.71875 429.207031 C 297.90625 405.472656 279.550781 407.449219 268.535156 413.285156 C 248.730469 423.773438 240.515625 454.421875 244.273438 476.78125 C 252.460938 525.632812 242.621094 550.074219 210.242188 561.113281 C 182.949219 570.429688 168.226562 600.152344 177.367188 627.367188 C 182.226562 641.765625 190.636719 652.507812 202.355469 659.242188 C 207.015625 661.921875 211.996094 664.976562 217.304688 668.230469 C 252.160156 689.539062 299.910156 718.710938 343.378906 700.933594 C 373.148438 688.738281 416.242188 683.105469 437.449219 696.675781 C 444.761719 701.359375 448.515625 708.042969 448.917969 717.109375 C 450.894531 761.929688 425.882812 860.183594 406.449219 898.042969 C 391.851562 926.511719 391.476562 952.175781 393.03125 966.773438 C 372.347656 966.171875 352.066406 963.945312 332.335938 960.1875 C 331.785156 942.8125 328.304688 902.421875 308.097656 880.4375 C 301.5625 873.328125 294.851562 867.742188 288.339844 862.359375 C 271.0625 848.011719 258.570312 837.671875 258.570312 806.773438 C 258.570312 754.265625 198.902344 698.355469 175.914062 681.226562 C 165.222656 673.265625 153.582031 669.058594 142.3125 664.976562 C 117.171875 655.886719 97.292969 648.703125 91.332031 603.429688 C 81.644531 530.089844 56.804688 504.726562 31.089844 487.726562 C 52.621094 401.890625 103.152344 326.070312 174.914062 272.914062 Z M 229.296875 239.109375 C 283.785156 211.21875 342.699219 197.070312 404.472656 197.070312 C 432.242188 197.070312 459.734375 200.074219 486.527344 205.910156 C 464.417969 217.25 452.222656 230.046875 449.46875 244.71875 C 446.789062 259.09375 453.550781 273.390625 469.625 287.234375 C 480.542969 296.652344 482.292969 313.402344 484.296875 332.78125 C 487.300781 361.953125 491.082031 398.234375 533.925781 412.882812 C 540.960938 415.261719 547.269531 416.464844 552.953125 416.464844 C 558.6875 416.464844 563.773438 415.261719 568.304688 412.808594 C 582 405.421875 586.082031 389.519531 590.039062 374.121094 C 596.371094 349.507812 600.804688 339.667969 619.359375 341.394531 C 646.578125 344.023438 663.027344 348.507812 676.222656 352.113281 C 690.167969 355.917969 701.539062 358.949219 717.761719 357.945312 C 747.507812 399.410156 768.765625 446.585938 780.085938 496.9375 C 750.589844 468.144531 725 475.429688 698.230469 483.066406 C 691.722656 484.945312 684.960938 486.875 677.851562 488.402344 C 659.171875 492.433594 648.078125 485.621094 635.207031 477.710938 C 620.710938 468.820312 604.285156 458.703125 577.59375 465.164062 C 550.023438 471.851562 514.019531 490.605469 503.300781 521.476562 C 498.519531 535.300781 497.09375 557.207031 517.472656 583.199219 C 524.9375 592.714844 530.921875 599.773438 535.277344 604.90625 C 540.609375 611.167969 544.792969 616.125 545.242188 618.105469 C 545.542969 619.507812 543.589844 624.1875 541.335938 629.648438 C 538.480469 636.53125 534.550781 645.996094 529.945312 660.320312 C 511.789062 716.632812 524.910156 728.703125 559.992188 760.925781 C 566.902344 767.285156 574.765625 774.5 583.628906 783.160156 C 632.429688 830.910156 634.90625 847.289062 638.414062 887.550781 C 575.488281 935.851562 497.292969 965.148438 412.433594 966.875 C 410.984375 955.65625 410.382812 932.546875 423.550781 906.832031 C 444.859375 865.289062 470.300781 765.433594 468.121094 716.28125 C 467.445312 700.933594 460.433594 688.5625 447.816406 680.476562 C 420.875 663.25 371.21875 668.757812 336.089844 683.128906 C 301.636719 697.203125 258.695312 670.988281 227.34375 651.804688 C 221.886719 648.476562 216.730469 645.347656 211.972656 642.59375 C 204.410156 638.234375 198.902344 631.050781 195.597656 621.234375 C 189.8125 604.03125 199.152344 585.226562 216.453125 579.316406 C 258.667969 564.894531 273.09375 532.292969 263.226562 473.601562 C 260.671875 458.429688 266.382812 436.195312 277.550781 430.285156 C 287.390625 425.078125 300.308594 434.367188 309.449219 443.105469 C 331.882812 464.539062 354.042969 460.882812 365.285156 456.800781 C 385.09375 449.589844 400.464844 430.734375 402.621094 410.980469 C 404.273438 396.132812 397.9375 383.011719 385.316406 374.949219 C 368.640625 364.308594 362.03125 342.296875 355.644531 320.988281 C 348.433594 296.953125 340.972656 272.085938 317.386719 267.105469 C 303.289062 264.125 288.765625 265.027344 273.34375 265.976562 C 250.855469 267.355469 225.769531 268.882812 194.417969 259.316406 C 205.613281 252.054688 217.253906 245.296875 229.296875 239.109375 Z M 702.714844 338.339844 C 695.851562 337.488281 689.316406 335.738281 681.28125 333.558594 C 667.382812 329.753906 650.058594 325.019531 621.1875 322.265625 C 584.355469 318.785156 576.59375 349.207031 571.410156 369.339844 C 568.355469 381.234375 565.472656 392.476562 559.164062 395.882812 C 555.207031 398.035156 548.796875 397.632812 540.136719 394.679688 C 508.9375 384.011719 506.382812 359.375 503.425781 330.804688 C 501.199219 309.296875 498.894531 287.0625 482.167969 272.664062 C 471.679688 263.625 467.046875 255.410156 468.371094 248.25 C 469.625 241.488281 477.738281 228.167969 516.773438 213.796875 C 547.320312 223.085938 576.667969 236.15625 604.085938 252.882812 C 642.21875 276.019531 675.371094 305.015625 702.714844 338.339844 Z M 808.703125 582.074219 C 808.703125 577.992188 808.703125 573.933594 808.578125 569.851562 C 804.5 432.488281 731.785156 307.84375 614.074219 236.433594 C 585.882812 219.230469 555.710938 205.734375 524.335938 195.992188 C 522.984375 195.59375 515.394531 193.339844 513.917969 192.914062 C 478.539062 183 441.757812 177.839844 404.472656 177.839844 C 340.546875 177.839844 276.949219 193.113281 220.535156 222.007812 C 84.648438 291.617188 0.242188 429.582031 0.242188 582.074219 C 0.242188 772.746094 132.972656 932.945312 310.875 975.289062 C 313.832031 976.011719 325.347656 978.492188 327.277344 978.867188 C 352.265625 983.726562 378.082031 986.304688 404.472656 986.304688 C 490.859375 986.304688 570.933594 958.988281 636.710938 912.640625 C 642.070312 908.859375 659.144531 895.636719 660.722656 894.359375 C 750.964844 820.167969 808.703125 707.769531 808.703125 582.074219 "/></g><g clip-rule="nonzero" clip-path="url(#1a35fc681e)"><path style=" stroke:none;fill-rule:nonzero;fill:#007bff;fill-opacity:1;" d="M 411.566406 746.90625 L 420.640625 732.785156 C 424.640625 726.558594 424.910156 718.964844 421.359375 712.46875 C 417.804688 705.972656 411.269531 702.089844 403.863281 702.089844 C 396.460938 702.089844 389.921875 705.972656 386.371094 712.46875 C 382.816406 718.953125 383.085938 726.546875 387.089844 732.785156 L 396.148438 746.894531 C 388.207031 748.304688 383.148438 751.835938 383.148438 756.097656 C 383.15625 761.804688 391.859375 765.957031 403.863281 765.957031 C 415.871094 765.957031 424.570312 761.804688 424.570312 756.097656 C 424.570312 751.816406 419.523438 748.292969 411.566406 746.90625 Z M 412.464844 720.898438 C 412.464844 725.628906 408.605469 729.484375 403.863281 729.484375 C 399.125 729.484375 395.261719 725.628906 395.261719 720.898438 C 395.261719 716.160156 399.125 712.296875 403.863281 712.296875 C 408.605469 712.296875 412.464844 716.148438 412.464844 720.898438 Z M 402.445312 756.695312 C 402.757812 757.183594 403.285156 757.472656 403.863281 757.472656 C 404.453125 757.472656 404.980469 757.183594 405.28125 756.707031 L 408.695312 751.386719 C 416.039062 752.253906 419.722656 754.871094 419.722656 756.097656 C 419.722656 757.59375 414.324219 761.105469 403.863281 761.105469 C 393.40625 761.105469 388.007812 757.59375 388.007812 756.097656 C 388.007812 754.871094 391.691406 752.265625 399.035156 751.386719 Z M 402.445312 756.695312 "/></g><g clip-rule="nonzero" clip-path="url(#1e9070b2cb)"><path style=" stroke:none;fill-rule:nonzero;fill:#007bff;fill-opacity:1;" d="M 397.714844 821.601562 L 406.785156 807.480469 C 410.789062 801.253906 411.058594 793.660156 407.503906 787.164062 C 403.953125 780.667969 397.414062 776.785156 390.011719 776.785156 C 382.605469 776.785156 376.070312 780.667969 372.515625 787.164062 C 368.964844 793.652344 369.234375 801.246094 373.234375 807.480469 L 382.296875 821.59375 C 374.351562 823 369.292969 826.53125 369.292969 830.792969 C 369.304688 836.5 378.003906 840.652344 390.011719 840.652344 C 402.015625 840.652344 410.71875 836.5 410.71875 830.792969 C 410.71875 826.511719 405.667969 822.988281 397.714844 821.601562 Z M 398.613281 795.597656 C 398.613281 800.328125 394.75 804.179688 390.011719 804.179688 C 385.269531 804.179688 381.410156 800.328125 381.410156 795.597656 C 381.410156 790.855469 385.269531 786.996094 390.011719 786.996094 C 394.75 786.996094 398.613281 790.847656 398.613281 795.597656 Z M 388.59375 831.390625 C 388.902344 831.882812 389.433594 832.171875 390.011719 832.171875 C 390.597656 832.171875 391.128906 831.882812 391.425781 831.402344 L 394.839844 826.082031 C 402.183594 826.953125 405.867188 829.566406 405.867188 830.792969 C 405.867188 832.289062 400.46875 835.804688 390.011719 835.804688 C 379.550781 835.804688 374.152344 832.289062 374.152344 830.792969 C 374.152344 829.566406 377.835938 826.960938 385.179688 826.082031 Z M 388.59375 831.390625 "/></g><g clip-rule="nonzero" clip-path="url(#6a089bd3f0)"><path style=" stroke:none;fill-rule:nonzero;fill:#007bff;fill-opacity:1;" d="M 383.859375 896.300781 L 392.933594 882.179688 C 396.933594 875.953125 397.203125 868.355469 393.652344 861.859375 C 390.097656 855.363281 383.5625 851.480469 376.15625 851.480469 C 368.753906 851.480469 362.214844 855.363281 358.664062 861.859375 C 355.109375 868.347656 355.378906 875.941406 359.382812 882.179688 L 368.441406 896.289062 C 360.5 897.695312 355.441406 901.230469 355.441406 905.488281 C 355.449219 911.199219 364.152344 915.347656 376.15625 915.347656 C 388.160156 915.347656 396.863281 911.199219 396.863281 905.488281 C 396.863281 901.207031 391.8125 897.6875 383.859375 896.300781 Z M 384.757812 870.292969 C 384.757812 875.023438 380.898438 878.875 376.15625 878.875 C 371.417969 878.875 367.554688 875.023438 367.554688 870.292969 C 367.554688 865.554688 371.417969 861.691406 376.15625 861.691406 C 380.898438 861.691406 384.757812 865.542969 384.757812 870.292969 Z M 374.738281 906.089844 C 375.050781 906.578125 375.578125 906.867188 376.15625 906.867188 C 376.746094 906.867188 377.273438 906.578125 377.574219 906.097656 L 380.988281 900.78125 C 388.332031 901.648438 392.015625 904.261719 392.015625 905.488281 C 392.015625 906.988281 386.613281 910.5 376.15625 910.5 C 365.699219 910.5 360.300781 906.988281 360.300781 905.488281 C 360.300781 904.261719 363.980469 901.65625 371.328125 900.78125 Z M 374.738281 906.089844 "/></g><g clip-rule="nonzero" clip-path="url(#2823a6aab1)"><path style=" stroke:none;fill-rule:nonzero;fill:#007bff;fill-opacity:1;" d="M 322.613281 811.980469 L 331.683594 797.859375 C 335.6875 791.632812 335.957031 784.039062 332.402344 777.542969 C 328.851562 771.042969 322.316406 767.164062 314.910156 767.164062 C 307.503906 767.164062 300.96875 771.042969 297.417969 777.542969 C 293.863281 784.027344 294.132812 791.621094 298.136719 797.859375 L 307.195312 811.96875 C 299.253906 813.375 294.195312 816.910156 294.195312 821.171875 C 294.203125 826.878906 302.90625 831.03125 314.910156 831.03125 C 326.914062 831.03125 335.617188 826.878906 335.617188 821.171875 C 335.617188 816.890625 330.566406 813.367188 322.613281 811.980469 Z M 323.511719 785.972656 C 323.511719 790.703125 319.652344 794.554688 314.910156 794.554688 C 310.171875 794.554688 306.308594 790.703125 306.308594 785.972656 C 306.308594 781.234375 310.171875 777.371094 314.910156 777.371094 C 319.652344 777.371094 323.511719 781.222656 323.511719 785.972656 Z M 313.492188 821.769531 C 313.800781 822.257812 314.332031 822.546875 314.910156 822.546875 C 315.5 822.546875 316.027344 822.257812 316.328125 821.78125 L 319.742188 816.460938 C 327.085938 817.328125 330.765625 819.941406 330.765625 821.171875 C 330.765625 822.667969 325.367188 826.179688 314.910156 826.179688 C 304.453125 826.179688 299.054688 822.667969 299.054688 821.171875 C 299.054688 819.941406 302.734375 817.339844 310.082031 816.460938 Z M 313.492188 821.769531 "/></g><g clip-rule="nonzero" clip-path="url(#a07a906765)"><path style=" stroke:none;fill-rule:nonzero;fill:#007bff;fill-opacity:1;" d="M 263.253906 355.351562 L 272.324219 341.230469 C 276.324219 335.003906 276.59375 327.410156 273.042969 320.914062 C 269.488281 314.417969 262.953125 310.535156 255.546875 310.535156 C 248.144531 310.535156 241.609375 314.417969 238.054688 320.914062 C 234.503906 327.402344 234.773438 334.996094 238.773438 341.230469 L 247.835938 355.34375 C 239.890625 356.75 234.832031 360.28125 234.832031 364.542969 C 234.839844 370.25 243.542969 374.402344 255.546875 374.402344 C 267.554688 374.402344 276.253906 370.25 276.253906 364.542969 C 276.253906 360.261719 271.207031 356.738281 263.253906 355.351562 Z M 264.152344 329.347656 C 264.152344 334.078125 260.289062 337.929688 255.546875 337.929688 C 250.808594 337.929688 246.945312 334.078125 246.945312 329.347656 C 246.945312 324.605469 250.808594 320.746094 255.546875 320.746094 C 260.289062 320.746094 264.152344 324.597656 264.152344 329.347656 Z M 254.132812 365.140625 C 254.441406 365.632812 254.96875 365.921875 255.546875 365.921875 C 256.136719 365.921875 256.667969 365.632812 256.964844 365.152344 L 260.378906 359.832031 C 267.722656 360.703125 271.40625 363.316406 271.40625 364.542969 C 271.40625 366.039062 266.007812 369.554688 255.546875 369.554688 C 245.089844 369.554688 239.691406 366.039062 239.691406 364.542969 C 239.691406 363.316406 243.375 360.710938 250.71875 359.832031 Z M 254.132812 365.140625 "/></g><g clip-rule="nonzero" clip-path="url(#777df5f083)"><path style=" stroke:none;fill-rule:nonzero;fill:#007bff;fill-opacity:1;" d="M 157.949219 481.421875 L 167.019531 467.300781 C 171.019531 461.074219 171.289062 453.480469 167.738281 446.984375 C 164.183594 440.488281 157.648438 436.605469 150.246094 436.605469 C 142.839844 436.605469 136.304688 440.488281 132.75 446.984375 C 129.199219 453.46875 129.46875 461.0625 133.46875 467.300781 L 142.53125 481.410156 C 134.585938 482.816406 129.527344 486.351562 129.527344 490.613281 C 129.539062 496.320312 138.238281 500.472656 150.246094 500.472656 C 162.25 500.472656 170.953125 496.320312 170.953125 490.613281 C 170.953125 486.332031 165.902344 482.808594 157.949219 481.421875 Z M 158.847656 455.414062 C 158.847656 460.144531 154.984375 463.996094 150.246094 463.996094 C 145.503906 463.996094 141.640625 460.144531 141.640625 455.414062 C 141.640625 450.675781 145.503906 446.8125 150.246094 446.8125 C 154.984375 446.8125 158.847656 450.664062 158.847656 455.414062 Z M 148.828125 491.210938 C 149.136719 491.699219 149.664062 491.988281 150.246094 491.988281 C 150.832031 491.988281 151.363281 491.699219 151.660156 491.222656 L 155.074219 485.902344 C 162.417969 486.769531 166.101562 489.382812 166.101562 490.613281 C 166.101562 492.109375 160.703125 495.621094 150.246094 495.621094 C 139.785156 495.621094 134.386719 492.109375 134.386719 490.613281 C 134.386719 489.382812 138.070312 486.78125 145.414062 485.902344 Z M 148.828125 491.210938 "/></g><g clip-rule="nonzero" clip-path="url(#ca6bcd927b)"><path style=" stroke:none;fill-rule:nonzero;fill:#007bff;fill-opacity:1;" d="M 607.34375 561.644531 L 616.417969 547.527344 C 620.417969 541.296875 620.6875 533.703125 617.132812 527.207031 C 613.582031 520.710938 607.046875 516.828125 599.640625 516.828125 C 592.234375 516.828125 585.699219 520.710938 582.148438 527.207031 C 578.59375 533.695312 578.863281 541.289062 582.867188 547.527344 L 591.925781 561.636719 C 583.984375 563.042969 578.925781 566.574219 578.925781 570.835938 C 578.933594 576.546875 587.636719 580.695312 599.640625 580.695312 C 611.644531 580.695312 620.347656 576.546875 620.347656 570.835938 C 620.347656 566.554688 615.296875 563.035156 607.34375 561.644531 Z M 608.242188 535.640625 C 608.242188 540.371094 604.382812 544.222656 599.640625 544.222656 C 594.902344 544.222656 591.039062 540.371094 591.039062 535.640625 C 591.039062 530.898438 594.902344 527.039062 599.640625 527.039062 C 604.382812 527.039062 608.242188 530.890625 608.242188 535.640625 Z M 598.222656 571.4375 C 598.535156 571.925781 599.0625 572.214844 599.640625 572.214844 C 600.230469 572.214844 600.757812 571.925781 601.058594 571.445312 L 604.472656 566.125 C 611.816406 566.996094 615.496094 569.609375 615.496094 570.835938 C 615.496094 572.335938 610.097656 575.847656 599.640625 575.847656 C 589.183594 575.847656 583.785156 572.335938 583.785156 570.835938 C 583.785156 569.609375 587.464844 567.003906 594.8125 566.125 Z M 598.222656 571.4375 "/></g><g clip-rule="nonzero" clip-path="url(#c63e04ad47)"><path style=" stroke:none;fill-rule:nonzero;fill:#007bff;fill-opacity:1;" d="M 607.34375 681.832031 L 616.417969 667.710938 C 620.417969 661.484375 620.6875 653.890625 617.132812 647.394531 C 613.582031 640.898438 607.046875 637.015625 599.640625 637.015625 C 592.234375 637.015625 585.699219 640.898438 582.148438 647.394531 C 578.59375 653.882812 578.863281 661.476562 582.867188 667.710938 L 591.925781 681.824219 C 583.984375 683.230469 578.925781 686.761719 578.925781 691.023438 C 578.933594 696.730469 587.636719 700.882812 599.640625 700.882812 C 611.644531 700.882812 620.347656 696.730469 620.347656 691.023438 C 620.347656 686.742188 615.296875 683.21875 607.34375 681.832031 Z M 608.242188 655.828125 C 608.242188 660.558594 604.382812 664.410156 599.640625 664.410156 C 594.902344 664.410156 591.039062 660.558594 591.039062 655.828125 C 591.039062 651.085938 594.902344 647.226562 599.640625 647.226562 C 604.382812 647.226562 608.242188 651.078125 608.242188 655.828125 Z M 598.222656 691.621094 C 598.535156 692.113281 599.0625 692.402344 599.640625 692.402344 C 600.230469 692.402344 600.757812 692.113281 601.058594 691.632812 L 604.472656 686.3125 C 611.816406 687.183594 615.496094 689.796875 615.496094 691.023438 C 615.496094 692.519531 610.097656 696.035156 599.640625 696.035156 C 589.183594 696.035156 583.785156 692.519531 583.785156 691.023438 C 583.785156 689.796875 587.464844 687.191406 594.8125 686.3125 Z M 598.222656 691.621094 "/></g><g clip-rule="nonzero" clip-path="url(#3dde214d54)"><path style=" stroke:none;fill-rule:nonzero;fill:#007bff;fill-opacity:1;" d="M 724.515625 616.757812 L 733.585938 602.640625 C 737.585938 596.410156 737.855469 588.816406 734.304688 582.320312 C 730.75 575.824219 724.214844 571.941406 716.808594 571.941406 C 709.40625 571.941406 702.871094 575.824219 699.316406 582.320312 C 695.765625 588.808594 696.035156 596.402344 700.035156 602.640625 L 709.097656 616.75 C 701.152344 618.15625 696.09375 621.6875 696.09375 625.949219 C 696.101562 631.660156 704.804688 635.808594 716.808594 635.808594 C 728.816406 635.808594 737.515625 631.660156 737.515625 625.949219 C 737.515625 621.667969 732.46875 618.148438 724.515625 616.757812 Z M 725.414062 590.753906 C 725.414062 595.484375 721.550781 599.335938 716.808594 599.335938 C 712.070312 599.335938 708.207031 595.484375 708.207031 590.753906 C 708.207031 586.011719 712.070312 582.152344 716.808594 582.152344 C 721.550781 582.152344 725.414062 586.003906 725.414062 590.753906 Z M 715.394531 626.550781 C 715.703125 627.039062 716.230469 627.328125 716.808594 627.328125 C 717.398438 627.328125 717.929688 627.039062 718.226562 626.558594 L 721.640625 621.238281 C 728.984375 622.109375 732.667969 624.722656 732.667969 625.949219 C 732.667969 627.449219 727.269531 630.960938 716.808594 630.960938 C 706.351562 630.960938 700.953125 627.449219 700.953125 625.949219 C 700.953125 624.722656 704.636719 622.117188 711.980469 621.238281 Z M 715.394531 626.550781 "/></g><g clip-rule="nonzero" clip-path="url(#4264c219cf)"><path style=" stroke:none;fill-rule:nonzero;fill:#007bff;fill-opacity:1;" d="M 564.640625 309.929688 L 573.710938 295.8125 C 577.714844 289.582031 577.984375 281.988281 574.429688 275.492188 C 570.878906 268.996094 564.339844 265.113281 556.9375 265.113281 C 549.53125 265.113281 542.996094 268.996094 539.441406 275.492188 C 535.890625 281.980469 536.160156 289.574219 540.160156 295.8125 L 549.222656 309.921875 C 541.277344 311.328125 536.21875 314.859375 536.21875 319.121094 C 536.230469 324.832031 544.929688 328.980469 556.9375 328.980469 C 568.941406 328.980469 577.644531 324.832031 577.644531 319.121094 C 577.644531 314.839844 572.59375 311.320312 564.640625 309.929688 Z M 565.539062 283.925781 C 565.539062 288.65625 561.675781 292.507812 556.9375 292.507812 C 552.195312 292.507812 548.335938 288.65625 548.335938 283.925781 C 548.335938 279.183594 552.195312 275.324219 556.9375 275.324219 C 561.675781 275.324219 565.539062 279.175781 565.539062 283.925781 Z M 555.519531 319.722656 C 555.828125 320.210938 556.359375 320.5 556.9375 320.5 C 557.523438 320.5 558.054688 320.210938 558.355469 319.730469 L 561.765625 314.414062 C 569.109375 315.28125 572.792969 317.894531 572.792969 319.121094 C 572.792969 320.621094 567.394531 324.132812 556.9375 324.132812 C 546.476562 324.132812 541.078125 320.621094 541.078125 319.121094 C 541.078125 317.894531 544.761719 315.289062 552.105469 314.414062 Z M 555.519531 319.722656 "/></g></g></svg>